<?xml version="1.0" encoding="UTF-8"?>
<!DOCTYPE svg PUBLIC "-//W3C//DTD SVG 1.1//EN" "http://www.w3.org/Graphics/SVG/1.1/DTD/svg11.dtd">
<svg version="1.1" xmlns="http://www.w3.org/2000/svg" xmlns:xlink="http://www.w3.org/1999/xlink" x="0" y="0" width="64" height="64" viewBox="0, 0, 64, 64">
  <g id="alien-2">
    <path d="M11.229,31.723 C11.059,31.853 11.439,32.393 11.439,32.393 C11.707,32.4 11.974,32.36 12.229,32.273 C12.439,32.153 12.229,31.563 12.149,31.443 C11.833,31.503 11.524,31.597 11.229,31.723 z M22.769,17.633 C22.979,17.713 23.349,16.883 26.769,14.553 C28.766,13.203 31.151,12.546 33.559,12.683 C33.689,12.603 33.689,11.683 33.349,11.683 C28.966,11.692 24.838,13.74 22.179,17.223 C22.069,17.383 22.569,17.553 22.769,17.633 z M45.849,16.633 C46.059,16.763 46.059,16.383 46.059,16.173 C45.449,15.594 44.702,15.178 43.889,14.963 C43.679,15.133 43.769,15.463 43.889,15.633 C44.525,15.993 45.183,16.314 45.859,16.593 z M47.599,19.463 C47.349,18.883 44.599,17.753 44.599,17.753 C44.599,17.753 44.479,18.333 44.599,18.543 C45.603,19.169 46.664,19.698 47.769,20.123 C47.939,20.133 47.859,20.013 47.609,19.423 z M48.139,22.593 C47.166,21.93 46.135,21.358 45.059,20.883 C44.991,21.114 44.951,21.353 44.939,21.593 C45.976,22.171 47.048,22.686 48.149,23.133 C48.519,23.263 48.229,22.843 48.149,22.553 z M59.309,32.593 C59.309,32.593 59.599,31.843 58.599,31.013 C57.599,30.183 54.809,31.183 54.679,31.183 C54.549,31.183 50.999,29.593 50.999,29.593 C51.175,27.739 51.211,25.873 51.109,24.013 C51.046,21.846 50.528,19.717 49.589,17.763 L52.279,13.763 C53.147,14.047 54.055,14.195 54.969,14.203 C55.849,14.083 58.029,13.453 58.219,10.333 C58.409,7.213 57.469,3.203 52.599,4.523 C47.729,5.843 49.999,11.363 49.999,11.363 L47.649,13.113 C47.649,13.113 46.589,11.013 42.999,8.743 C39.409,6.473 34.209,5.863 27.649,7.493 C23.452,8.655 19.637,10.904 16.589,14.013 L12.359,10.263 C12.359,10.263 13.689,7.763 12.359,5.933 C11.029,4.103 5.439,4.423 3.729,7.723 C2.019,11.023 4.019,13.183 6.189,13.723 C7.63,13.982 9.115,13.651 10.309,12.803 L14.729,17.423 C13.537,18.953 12.749,20.759 12.439,22.673 C11.976,24.989 12.021,27.377 12.569,29.673 L10.319,30.503 C10.223,29.816 9.685,29.273 8.999,29.173 C7.749,28.843 6.919,30.503 6.919,30.503 C6.626,30.48 6.332,30.507 6.049,30.583 C5.719,30.713 5.129,31.293 4.929,32.753 C4.91,33.739 5.416,34.661 6.259,35.173 C6.051,35.881 6.172,36.644 6.589,37.253 C7.299,38.253 8.759,37.793 9.589,37.253 C10.419,36.713 10.089,35.043 10.089,35.043 L13.379,33.963 C13.379,33.963 14.379,36.963 15.759,40.883 C17.139,44.803 19.999,52.593 19.999,52.593 C18.393,52.728 16.81,53.064 15.289,53.593 C13.999,54.263 14.669,58.883 14.669,59.303 C14.669,59.723 15.339,59.763 19.249,59.723 C23.159,59.683 29.249,59.183 29.419,58.723 C29.589,58.263 29.339,51.303 29.419,50.973 C29.499,50.643 30.669,50.183 32.339,49.973 C33.667,49.812 35.01,49.812 36.339,49.973 C36.589,50.103 36.629,57.103 36.589,57.643 C36.549,58.183 37.589,58.973 41.089,58.973 C44.589,58.973 49.089,58.603 49.509,58.303 C49.929,58.003 49.929,54.973 49.509,53.093 C49.089,51.213 45.179,51.173 45.179,51.173 C45.179,51.173 45.849,48.883 46.969,45.343 C48.089,41.803 50.679,33.173 50.679,33.173 L53.849,34.173 C53.895,34.695 53.992,35.211 54.139,35.713 C54.525,37.034 55.333,38.193 56.439,39.013 C57.64,39.5 59.017,39.042 59.689,37.933 C59.967,37.369 59.745,36.686 59.189,36.393 C60.066,36.033 60.696,35.247 60.859,34.313 C61.269,32.553 59.319,32.513 59.319,32.513 z M9.109,34.383 C9.109,34.633 9.439,35.963 8.899,36.463 C8.359,36.963 7.569,36.963 7.399,36.633 C7.229,36.303 7.109,35.463 7.399,35.423 C7.689,35.383 7.979,35.213 7.979,35.093 C7.979,34.973 7.899,34.383 7.899,34.383 C7.899,34.383 6.899,34.713 6.399,34.173 C5.899,33.633 5.479,32.093 5.999,31.723 C6.449,31.388 7.056,31.357 7.539,31.643 C7.749,31.893 8.329,31.393 8.329,31.393 L7.789,30.523 C7.789,30.523 7.999,29.523 8.789,29.903 C9.579,30.283 9.789,31.483 9.919,31.443 C10.049,31.403 12.419,30.443 12.539,30.733 C12.659,31.023 13.079,33.153 13.079,33.153 C13.079,33.153 9.109,34.133 9.109,34.383 z M52.899,5.763 C54.319,5.303 56.729,5.553 57.279,8.843 C57.829,12.133 55.779,13.383 53.739,12.973 C51.911,12.643 50.654,10.948 50.869,9.103 C50.939,7.263 51.729,6.133 52.899,5.763 z M50.529,12.183 C50.659,12.353 51.739,13.183 51.609,13.353 C51.479,13.523 49.319,16.353 49.319,16.353 C48.945,15.636 48.611,14.898 48.319,14.143 C48.359,14.013 50.519,12.173 50.519,12.173 z M8.699,12.603 C7.279,13.143 5.369,13.063 4.579,11.853 C3.789,10.643 3.519,6.923 8.479,6.013 C10.209,5.693 11.689,6.433 11.939,8.013 C12.189,9.593 10.109,12.013 8.689,12.593 z M11.159,12.433 C11.289,12.223 12.039,11.223 12.039,11.223 C13.449,12.389 14.772,13.656 15.999,15.013 C15.814,15.478 15.562,15.913 15.249,16.303 C14.935,16.693 10.999,12.633 11.149,12.423 z M49.359,29.093 C48.182,28.499 46.974,27.972 45.739,27.513 C45.659,27.643 45.279,28.143 45.739,28.263 C46.946,28.832 48.103,29.501 49.199,30.263 C49.199,30.433 48.869,32.973 48.869,32.973 C48.869,32.973 46.119,31.433 45.999,31.473 C45.879,31.513 45.709,32.053 45.879,32.103 C46.049,32.153 48.759,33.773 48.709,34.023 C48.659,34.273 44.999,45.763 44.859,45.803 C44.119,45.537 43.394,45.23 42.689,44.883 C41.983,44.536 42.359,45.463 42.519,45.553 C42.679,45.643 44.649,46.433 44.519,46.633 C44.389,46.833 44.149,47.633 44.149,47.633 C43.408,47.199 42.628,46.837 41.819,46.553 C41.699,46.683 41.489,46.973 41.699,47.133 C42.484,47.456 43.252,47.819 43.999,48.223 C43.999,48.393 43.999,49.053 43.879,49.053 C43.06,48.658 42.218,48.31 41.359,48.013 C41.149,48.093 40.899,48.513 41.149,48.683 C41.399,48.853 43.609,49.763 43.569,50.013 C43.475,50.318 43.351,50.613 43.199,50.893 C42.474,50.421 41.722,49.99 40.949,49.603 C40.829,49.603 40.659,50.233 40.779,50.313 C41.478,50.69 42.147,51.121 42.779,51.603 C42.779,51.733 40.109,51.893 40.069,52.233 C40.001,52.536 40.001,52.85 40.069,53.153 C40.149,53.323 43.069,53.153 44.899,53.403 C46.729,53.653 47.529,53.613 47.609,54.073 C47.689,54.533 47.899,57.363 47.609,57.453 C47.319,57.543 41.899,57.453 40.529,57.373 C39.159,57.293 38.409,57.043 38.409,56.793 C38.409,56.543 38.329,49.043 38.119,48.793 C37.909,48.543 34.869,48.173 32.409,48.293 C30.878,48.383 29.371,48.721 27.949,49.293 C27.551,48.92 27.119,48.586 26.659,48.293 C26.489,48.293 26.079,48.583 26.199,48.793 C26.319,49.003 27.449,49.923 27.449,50.043 C27.432,50.211 27.406,50.378 27.369,50.543 C26.423,49.837 25.419,49.211 24.369,48.673 C24.199,48.803 23.999,49.303 24.199,49.423 C25.291,50.132 26.336,50.91 27.329,51.753 C27.329,51.963 27.409,52.963 27.409,52.963 C27.409,52.963 24.789,51.213 24.619,51.463 C24.449,51.713 24.409,52.253 24.539,52.343 C24.669,52.433 27.329,53.593 27.369,53.883 C27.472,55.131 27.472,56.385 27.369,57.633 C27.199,57.843 16.749,58.633 16.619,58.213 C16.489,57.793 16.499,54.713 16.789,54.503 C17.079,54.293 23.249,53.503 23.329,53.293 C23.409,53.083 23.409,52.543 23.209,52.503 C23.009,52.463 21.839,52.503 21.789,52.423 C21.739,52.343 16.249,38.303 15.039,33.213 C13.829,28.123 13.359,21.303 16.999,16.513 C20.639,11.723 22.289,11.093 25.289,9.723 C27.729,8.603 33.959,7.803 38.289,8.473 C42.619,9.143 46.999,14.343 47.999,18.013 C48.637,20.502 49.082,23.036 49.329,25.593 C49.575,28.15 45.709,23.423 45.539,23.593 C45.369,23.763 45.329,24.343 45.459,24.423 C45.589,24.503 49.249,26.093 49.339,26.423 C49.429,26.753 49.359,29.093 49.359,29.093 z M59.729,35.013 C59.284,35.514 58.748,35.925 58.149,36.223 C57.979,36.223 57.899,36.723 58.069,36.853 C58.239,36.983 59.149,37.273 58.949,37.643 C58.721,38.063 58.317,38.358 57.848,38.447 C57.379,38.537 56.894,38.41 56.529,38.103 C55.319,37.103 54.949,34.433 54.909,34.233 C54.812,33.893 54.641,33.579 54.409,33.313 C54.289,33.313 50.909,32.313 50.909,32.193 C50.909,32.073 51.199,30.613 51.199,30.613 C51.369,30.693 54.779,32.153 54.909,32.193 C55.039,32.233 56.909,31.313 57.909,31.613 C58.909,31.913 58.659,32.443 58.579,32.693 C58.499,32.943 58.209,33.443 58.409,33.613 C58.609,33.783 58.619,33.903 58.739,33.903 C58.859,33.903 59.279,33.283 59.619,33.483 C60.035,33.893 60.082,34.548 59.729,35.013 z M43.189,35.093 C42.859,35.013 41.319,37.013 38.769,38.263 C36.219,39.513 32.769,39.063 32.559,39.093 C32.139,39.173 32.479,41.093 32.729,41.303 C32.979,41.513 36.109,41.433 39.269,40.013 C41.217,39.152 42.839,37.691 43.899,35.843 C43.999,35.673 43.519,35.173 43.189,35.093 z M41.859,22.803 C39.779,18.383 34.399,17.353 30.689,18.183 C19.109,20.763 21.269,32.813 24.269,35.683 C27.269,38.553 33.729,38.683 38.559,35.893 C43.389,33.103 43.939,27.223 41.859,22.803 z M25.389,34.613 C22.799,32.133 20.929,21.733 30.929,19.503 C34.129,18.793 38.769,19.683 40.569,23.503 C42.369,27.323 41.899,32.423 37.729,34.793 C33.559,37.163 27.999,37.093 25.389,34.613 z M31.459,25.013 C30.32,25.222 29.376,26.017 28.977,27.104 C28.578,28.191 28.784,29.408 29.519,30.303 C30.429,31.173 32.379,31.193 33.839,30.363 C34.967,29.526 35.363,28.018 34.792,26.735 C34.221,25.451 32.836,24.736 31.459,25.013 z M32.649,28.143 C32.479,28.063 31.479,26.473 32.229,26.143 C32.8,25.991 33.408,26.168 33.809,26.603 C34.229,27.013 32.819,28.173 32.649,28.093 z" fill="#FFFFFF"/>
  </g>
</svg>
