<?xml version="1.0" encoding="UTF-8"?>
<!DOCTYPE svg PUBLIC "-//W3C//DTD SVG 1.1//EN" "http://www.w3.org/Graphics/SVG/1.1/DTD/svg11.dtd">
<svg version="1.1" xmlns="http://www.w3.org/2000/svg" xmlns:xlink="http://www.w3.org/1999/xlink" x="0" y="0" width="120" height="80" viewBox="0, 0, 120, 80">
  <g id="Layer_1">
    <path d="M11.05,18.211 Q11.226,18.123 11.226,17.674 L11.226,17.273 L11.392,17.273 Q11.411,17.557 11.431,17.703 Q11.45,17.85 11.455,17.898 Q11.46,17.947 11.489,18.001 Q11.519,18.055 11.523,18.074 Q11.528,18.094 11.582,18.118 Q11.636,18.143 11.65,18.147 Q11.665,18.152 11.743,18.167 Q11.821,18.182 11.846,18.196 Q11.87,18.211 12.026,18.201 Q12.183,18.191 12.7,17.996 Q13.218,17.801 13.433,17.659 Q13.647,17.518 13.711,17.342 Q13.774,17.166 13.833,16.609 L13.97,16.629 Q13.931,16.932 13.931,17.239 Q13.931,17.547 14.023,17.659 Q14.116,17.771 14.351,17.771 Q14.585,17.771 15.024,17.713 L15.073,17.869 Q14.536,17.938 14.365,18.011 Q14.194,18.084 14.106,18.23 L13.97,18.572 Q13.931,18.689 13.931,18.748 Q13.931,19.012 14.448,19.432 L14.292,19.627 Q13.755,19.188 13.604,19.188 Q13.452,19.188 13.267,19.354 Q13.149,19.402 13.149,19.476 Q13.149,19.549 13.35,19.788 Q13.55,20.027 13.657,20.848 Q13.765,21.668 13.765,22.254 L13.667,26.727 Q13.647,26.893 13.628,27.171 Q13.608,27.449 13.589,27.571 Q13.569,27.693 13.511,27.879 Q13.423,28.191 13.091,28.426 Q12.974,28.523 12.974,28.67 L12.974,30.086 Q12.974,30.174 13.423,30.56 Q13.872,30.945 13.994,30.979 Q14.116,31.014 14.253,31.014 Q14.39,31.014 15.073,30.574 L15.132,30.691 Q14.673,30.984 14.536,31.116 Q14.399,31.248 14.37,31.395 L14.37,31.434 Q14.331,31.473 14.331,31.551 Q14.331,31.668 14.966,32.127 L14.888,32.273 Q14.39,31.912 14.238,31.912 Q14.087,31.912 14.009,31.951 L13.765,32.127 Q13.647,32.195 13.647,32.43 L13.667,32.674 L13.687,33.367 L13.345,33.367 L13.345,32.547 Q13.345,32.225 12.681,32.093 Q12.017,31.961 11.128,31.902 Q10.239,31.844 9.966,31.741 Q9.692,31.639 9.175,31.341 Q8.657,31.043 8.364,30.945 L8.452,30.213 Q8.706,30.105 9.331,30.105 L9.868,30.105 Q10.21,30.105 10.21,29.793 Q10.229,29.178 10.381,27.967 Q10.532,26.756 10.542,26.375 Q10.552,25.994 10.508,25.921 Q10.464,25.848 10.347,25.828 Q10.181,25.789 9.736,25.789 Q9.292,25.789 8.979,25.843 Q8.667,25.896 8.579,26.062 Q8.491,26.229 8.491,26.766 L8.247,26.766 Q8.247,26.229 8.169,26.062 Q8.091,25.896 7.822,25.853 Q7.554,25.809 6.65,25.809 Q5.747,25.809 5.708,26.15 L5.591,29.246 Q5.571,29.51 5.811,29.861 Q6.05,30.213 6.294,30.213 Q6.606,30.213 6.606,29.529 L6.606,29.266 L6.753,29.266 Q6.763,29.803 6.807,29.939 Q6.851,30.076 6.968,30.105 L7.192,30.174 Q7.231,30.193 7.363,30.193 Q7.495,30.193 8.228,29.891 L8.267,29.988 Q7.534,30.301 7.329,30.555 L7.29,30.652 Q7.192,30.779 7.192,30.906 L7.349,30.828 L7.31,30.975 Q7.231,30.975 7.192,30.994 Q7.222,31.238 7.573,31.668 L7.368,31.834 Q6.929,31.229 6.631,31.229 Q6.333,31.229 5.776,31.463 Q5.22,31.697 4.59,32.02 Q3.96,32.342 3.774,32.41 Q3.589,32.479 3.53,32.527 Q3.354,32.674 3.286,33.367 L3.091,33.348 Q3.11,33.133 3.11,32.791 Q3.11,32.449 2.964,32.449 Q2.817,32.449 2.715,32.562 Q2.612,32.674 2.612,32.83 L2.612,33.094 Q2.612,33.27 2.48,33.533 Q2.349,33.797 2.349,34.373 L2.349,34.715 L2.29,34.715 Q2.241,33.836 2.153,33.709 L2.104,33.592 Q2.026,33.514 1.855,33.514 Q1.685,33.514 1.206,33.611 L1.187,33.514 Q1.86,33.348 1.919,33.274 Q1.978,33.201 1.982,33.152 Q1.987,33.104 2.173,32.576 Q2.358,32.049 2.349,32.029 L1.987,31.414 Q1.909,31.258 1.729,31.175 Q1.548,31.092 0.991,30.994 L1.011,30.809 Q1.392,30.887 1.694,30.887 Q1.997,30.887 2.344,30.618 Q2.69,30.35 2.69,30.213 L2.69,26.873 Q2.69,26.707 2.529,26.346 Q2.368,25.984 2.368,25.809 L2.368,22.771 Q2.368,22.693 1.772,22.371 L1.948,21.971 L2.251,22.068 Q2.437,22.068 2.563,21.937 Q2.69,21.805 2.69,21.629 L2.554,19.91 Q2.554,19.861 2.446,19.754 L1.685,19.07 Q1.479,18.895 1.113,18.895 Q0.747,18.895 0.532,18.914 L0.532,18.709 Q1.362,18.65 1.626,18.348 L2.065,17.752 Q2.31,17.41 2.349,16.57 L2.466,16.57 Q2.446,16.746 2.446,17.166 Q2.446,17.586 2.612,17.791 Q2.759,17.908 3.843,18.05 Q4.927,18.191 5.254,18.191 Q5.581,18.191 5.703,18.06 Q5.825,17.928 6.069,17.488 L6.206,17.566 Q5.913,18.094 5.913,18.348 Q5.913,18.826 7.134,18.826 Q7.446,18.826 8.247,18.494 L8.286,18.611 Q7.563,18.914 7.329,19.148 L7.524,19.109 L7.407,19.549 L7.007,19.529 Q6.968,19.568 6.968,19.607 Q6.968,19.979 7.485,20.711 L7.368,20.789 Q7.026,20.33 6.855,20.184 Q6.685,20.037 6.489,19.988 L6.167,19.891 L6.069,19.891 Q5.854,19.891 5.723,20.193 Q5.591,20.496 5.591,20.652 L5.591,23.865 Q5.591,24.207 5.913,24.207 L7.524,24.207 Q7.729,24.207 8.071,24.026 Q8.413,23.846 8.623,23.846 Q8.833,23.846 9.248,24.007 Q9.663,24.168 9.834,24.168 Q10.005,24.168 10.107,24.065 Q10.21,23.963 10.21,23.807 L10.21,20.33 Q10.21,19.959 8.794,19.686 L8.511,18.973 Q8.755,18.973 8.931,19.031 Q9.058,19.031 9.146,18.924 Q9.233,18.816 9.233,18.606 Q9.233,18.396 9.126,18.006 L9.351,17.947 Q9.497,18.465 9.619,18.597 Q9.741,18.729 9.966,18.729 L10.054,18.729 Q10.151,18.729 10.454,18.47 Q10.757,18.211 11.05,18.211 z" fill="#93241C"/>
    <path d="M26.401,19.686 Q25.972,19.051 25.562,19.051 L22.661,19.07 Q22.515,19.07 22.412,19.441 Q22.31,19.812 22.31,20.389 L22.368,20.613 Q22.368,20.633 22.476,20.779 Q22.583,20.926 22.583,21.531 L22.485,22.947 Q22.485,23.367 22.612,23.851 Q22.739,24.334 22.964,24.334 Q22.993,24.334 23.418,24.153 Q23.843,23.973 24.146,23.973 Q24.448,23.973 24.604,23.992 Q24.946,23.992 24.946,23.67 L24.946,22.332 Q24.946,22.156 24.766,22.039 Q24.585,21.922 24.263,21.785 L24.321,21.668 Q24.702,21.912 24.902,21.912 Q25.103,21.912 25.215,21.814 Q25.327,21.717 25.542,20.945 L25.62,20.975 Q25.444,21.561 25.444,21.795 Q25.444,22.029 25.723,22.332 Q26.001,22.635 26.206,22.635 Q26.411,22.635 26.987,22.371 L27.085,22.547 Q26.636,22.811 26.519,22.947 Q26.401,23.084 26.401,23.309 L26.401,23.348 Q26.392,23.436 26.675,23.758 Q26.958,24.08 26.948,24.373 L26.929,24.91 Q26.929,25.066 27.183,25.213 Q27.192,25.213 27.681,25.408 L27.603,25.691 L27.085,25.486 Q27.026,25.467 26.919,25.467 Q26.812,25.467 26.646,25.633 L26.44,25.906 Q26.401,25.984 26.401,26.053 L26.44,26.434 Q26.44,27.156 26.108,27.488 Q25.845,27.752 25.825,28.553 L25.669,28.553 L25.669,28.348 Q25.669,27.732 25.425,27.469 Q24.771,26.795 24.702,25.408 Q24.702,25.174 24.507,25.174 L23.628,25.311 L23.042,25.271 Q22.827,25.271 22.656,25.716 Q22.485,26.16 22.485,26.473 L22.485,26.873 Q22.485,28.406 22.524,28.406 Q22.739,28.406 23.022,28.328 L23.101,28.611 Q22.612,28.729 22.49,28.86 Q22.368,28.992 22.368,29.246 L22.368,29.646 Q22.368,29.949 22.661,29.949 L24.185,29.949 Q24.438,29.949 24.565,29.822 Q24.692,29.695 24.81,29.207 L25.083,29.266 Q25.005,29.568 25.005,29.773 Q25.005,30.096 25.601,30.335 Q26.196,30.574 26.479,30.574 Q26.948,30.574 26.968,30.291 L27.046,29.832 Q27.163,29.109 28.423,28.973 Q28.726,28.943 29.36,28.387 L29.468,28.494 Q28.833,29.051 28.77,29.378 Q28.706,29.705 28.53,30.75 Q28.354,31.795 28.262,32.112 Q28.169,32.43 28.169,32.547 L28.442,33.348 L28.228,33.406 Q27.896,32.547 27.944,32.596 Q27.817,32.381 27.676,32.352 Q27.534,32.322 27.432,32.288 Q27.329,32.254 27.202,32.254 Q26.89,32.254 26.665,32.811 L26.489,32.732 Q26.646,32.332 26.646,32.181 Q26.646,32.029 26.66,32.029 Q26.675,32.029 26.685,32.034 Q26.694,32.039 26.724,32.049 Q26.411,31.902 25.84,31.741 Q25.269,31.58 25.117,31.497 Q24.966,31.414 24.888,31.414 L20.425,31.414 Q19.458,31.414 19.341,31.893 L18.97,32.732 L18.647,32.586 L19.067,31.707 Q19.165,31.277 19.165,30.604 Q19.165,29.93 18.843,26.399 Q18.521,22.869 18.501,20.994 Q18.481,20.799 18.359,20.682 Q18.237,20.564 17.769,20.408 L17.827,20.213 Q18.413,20.369 18.477,20.369 Q18.54,20.369 18.579,20.359 Q18.696,20.35 18.765,20.193 L19.009,19.891 L19.106,19.627 L19.126,19.549 L19.048,19.246 Q18.999,19.109 18.516,18.978 Q18.032,18.846 17.783,18.846 Q17.534,18.846 17.222,19.451 L17.007,19.334 Q17.202,18.904 17.202,18.753 Q17.202,18.602 17.026,18.406 L16.528,17.986 Q16.313,17.83 16.23,17.83 Q16.147,17.83 15.503,17.986 L15.425,17.791 Q15.952,17.605 16.108,17.43 Q16.265,17.254 16.265,16.99 L16.265,16.766 Q16.265,16.58 15.728,16.072 L15.786,16.014 Q16.323,16.551 16.489,16.551 L16.528,16.551 Q16.655,16.551 16.758,16.37 Q16.86,16.189 17.007,15.867 L17.085,15.906 Q16.841,16.434 16.841,16.551 Q16.841,16.668 16.929,16.771 Q17.017,16.873 17.085,16.873 L17.144,16.873 Q17.368,16.834 17.563,16.15 L17.769,16.209 Q17.661,16.551 17.661,16.79 Q17.661,17.029 18.154,17.269 Q18.647,17.508 18.921,17.508 Q19.126,17.508 19.429,16.893 L19.604,16.971 Q19.36,17.508 19.36,17.605 Q19.36,17.83 19.844,18.06 Q20.327,18.289 20.542,18.289 Q20.757,18.289 20.864,18.172 Q20.972,18.055 21.147,17.674 L21.343,17.752 Q21.147,18.182 21.147,18.348 Q21.187,18.23 21.797,18.143 Q22.407,18.055 22.7,18.055 Q22.993,18.055 23.115,17.923 Q23.237,17.791 23.403,17.371 L23.608,17.469 Q23.403,17.918 23.403,18.118 Q23.403,18.318 23.569,18.406 Q23.696,18.553 23.823,18.553 L26.021,18.553 Q26.03,18.553 26.069,18.514 L26.108,18.553 Q26.187,18.553 26.323,18.416 Q26.46,18.279 26.836,18.133 Q27.212,17.986 27.559,17.894 Q27.905,17.801 28.32,17.503 Q28.735,17.205 29.028,16.727 L29.126,16.814 Q28.687,17.469 28.687,17.811 L28.687,21.248 Q28.687,21.6 29.028,22.352 L28.94,22.391 Q28.638,21.707 28.345,21.414 L27.388,20.594 Q27.31,20.555 27.28,20.506 Q27.144,20.525 27.026,20.647 Q26.909,20.77 26.685,21.15 L26.548,21.072 Q26.821,20.564 26.821,20.325 Q26.821,20.086 26.284,19.588 z" fill="#93241C"/>
    <path d="M41.001,29.891 Q40.366,29.354 40.044,29.354 L39.878,29.354 L39.985,30.35 Q40.474,30.564 40.669,31.043 Q40.845,31.473 41.304,31.473 Q41.323,31.473 41.899,31.023 Q42.476,30.574 42.661,30.574 Q42.554,30.711 42.29,30.965 Q41.646,31.619 41.646,31.668 Q41.646,31.717 41.685,31.814 L41.685,31.834 Q41.753,31.941 42.339,32.049 L42.544,32.088 Q42.544,32.137 42.31,32.156 Q42.075,32.176 41.987,32.205 Q41.899,32.234 41.87,32.264 Q41.841,32.293 41.812,32.327 Q41.782,32.361 41.65,32.415 Q41.519,32.469 41.396,32.654 Q41.274,32.84 41.255,32.996 Q41.226,33.406 41.079,33.406 Q40.894,33.406 40.562,33.025 Q40.229,32.645 40.005,32.254 L39.526,32.527 Q39.312,32.625 39.243,34.393 Q39.243,34.598 39.058,34.666 Q39.058,34.021 38.667,33.333 Q38.276,32.645 37.764,32.229 Q37.251,31.814 36.968,31.814 Q36.685,31.814 36.001,31.854 L35.679,31.99 Q35.669,31.99 35.303,32.288 Q34.937,32.586 34.8,32.586 L34.878,32.508 L34.858,32.508 Q34.819,32.508 34.487,32.22 Q34.155,31.932 34.038,31.932 L32.622,32.01 Q32.319,32.264 31.724,32.371 Q31.577,32.625 31.074,32.742 Q30.571,32.859 29.937,32.952 Q29.302,33.045 29.111,33.147 Q28.921,33.25 28.853,33.25 Q28.784,33.25 28.745,33.23 Q29.321,32.889 29.565,32.605 L29.927,32.088 Q30.005,31.98 30.034,31.707 Q30.063,31.434 30.122,31.365 Q30.083,31.727 30.083,31.907 Q30.083,32.088 30.122,32.127 L30.122,31.932 Q30.122,31.307 30.562,31.287 Q30.562,30.584 31.343,30.35 L31.118,28.729 Q31.089,28.553 30.601,28.27 L30.659,27.967 Q30.962,28.074 31.001,28.074 Q31.187,28.074 31.494,27.562 Q31.802,27.049 31.978,26.932 Q31.958,26.727 31.958,26.365 L32.065,25.047 Q32.065,24.959 31.777,24.754 Q31.489,24.549 31.479,24.412 L31.479,24.373 Q31.89,24.549 32.085,24.549 Q32.28,24.549 32.49,24.104 Q32.7,23.66 32.7,23.494 Q32.7,23.328 32.466,23.113 Q32.163,22.83 32.241,22.674 Q32.729,22.967 32.856,22.967 Q32.983,22.967 33.12,22.83 Q33.101,22.752 33.101,22.435 Q33.101,22.117 33.442,21.248 Q33.784,20.379 33.784,19.891 L33.765,19.646 Q33.765,19.588 33.442,19.334 L33.54,19.051 Q33.833,19.188 33.862,19.188 Q34.224,19.188 35.376,17.977 Q35.854,17.469 36.06,17.312 Q36.06,17.117 36.206,16.727 L36.44,16.727 Q36.421,16.844 36.421,17.107 Q36.421,17.371 36.538,17.703 Q36.655,18.035 37.021,18.772 Q37.388,19.51 37.7,20.066 Q38.481,21.492 38.667,22.811 Q38.774,23.611 39.009,23.934 Q39.243,24.256 39.37,24.422 Q39.663,24.822 39.663,25.447 L39.624,26.229 L39.624,26.854 Q40.22,27.674 40.405,28.895 Q40.464,29.188 40.864,29.568 Q40.981,29.686 40.981,29.832 z M36.401,30.486 L36.519,30.467 L36.821,30.428 L37.378,29.812 L37.261,28.055 Q36.919,27.801 36.738,27.293 Q36.558,26.785 36.558,26.536 Q36.558,26.287 36.572,26.248 Q36.587,26.209 36.587,26.189 L36.284,26.609 Q36.206,26.717 36.206,26.8 Q36.206,26.883 36.294,27.093 Q36.382,27.303 36.382,27.459 Q36.382,27.615 36.323,27.674 Q36.04,27.205 35.908,27.088 Q35.776,26.971 35.581,26.971 L33.403,26.971 L33.54,27.508 Q33.569,27.635 33.926,27.894 Q34.282,28.152 34.302,28.309 Q33.872,28.152 33.687,28.152 Q33.501,28.152 33.345,28.27 L33.159,28.533 L33.159,30.428 L33.901,30.389 L34.507,30.486 Q34.546,30.486 34.766,30.389 Q34.985,30.291 35.122,30.291 Q35.259,30.291 35.298,30.311 Q34.917,30.545 34.795,30.667 Q34.673,30.789 34.644,30.926 L34.644,31.15 L34.624,31.209 Q34.624,31.346 34.771,31.355 Q35.093,31.395 35.22,31.668 Q34.78,31.531 34.653,31.531 Q34.526,31.531 34.541,31.722 Q34.556,31.912 34.966,32.43 Q35.317,32.039 35.4,31.839 Q35.483,31.639 35.713,31.219 Q35.942,30.799 35.942,30.721 Q35.942,30.643 35.801,30.394 Q35.659,30.145 35.659,30.042 Q35.659,29.939 35.747,29.871 Q36.157,30.486 36.401,30.486 z M35.161,23.953 L34.585,23.846 Q34.38,23.846 34.204,24.09 Q33.882,24.529 33.882,24.861 Q33.882,25.193 33.901,25.271 L34.341,25.428 Q34.995,25.428 35.366,25.286 Q35.737,25.145 35.942,25.105 L36.265,25.008 Q35.981,24.412 35.981,24.114 Q35.981,23.816 35.713,22.459 Q35.444,21.102 35.298,20.633 L34.438,22.586 L34.438,22.791 Q34.487,22.84 34.526,23.191 L34.526,23.27 Q34.565,23.514 34.985,23.689 Q35.239,23.826 35.239,23.914 Q35.239,23.953 35.161,23.953 z" fill="#93241C"/>
    <path d="M47.593,31.668 Q47.515,31.531 47.397,31.395 Q47.31,31.404 47.261,31.434 Q47.144,31.521 47.017,32.146 L46.87,32.107 Q46.948,31.746 46.948,31.521 Q46.948,31.297 46.675,31.194 Q46.401,31.092 46.108,31.092 Q44.985,31.092 44.17,31.6 Q43.354,32.107 43.354,32.83 L43.13,32.752 L43.296,32.107 Q43.296,31.912 43.433,31.541 Q43.569,31.17 43.569,30.975 Q43.569,30.779 42.993,30.467 L43.11,30.291 Q43.54,30.525 43.687,30.525 Q43.833,30.525 43.97,30.389 L44.175,30.105 Q44.214,30.066 44.214,29.979 Q44.214,29.891 44.194,29.852 Q43.794,28.924 43.794,27.186 L43.696,26.492 L43.716,26.326 Q43.716,26.268 43.677,26.189 Q43.374,25.73 43.374,25.262 Q43.374,24.793 43.428,24.471 Q43.481,24.148 43.535,23.929 Q43.589,23.709 43.701,23.333 Q43.813,22.957 43.833,22.815 Q43.853,22.674 43.833,22.605 L43.735,22.43 Q43.599,22.186 43.379,22.186 Q43.159,22.186 42.817,22.234 L42.788,22.01 Q43.267,21.941 43.413,21.849 Q43.56,21.756 43.608,21.57 Q43.716,21.033 43.716,20.574 Q43.716,20.115 43.525,19.554 Q43.335,18.992 43.032,18.992 Q42.954,18.992 42.915,19.012 L42.056,19.373 Q41.714,19.52 41.177,20.135 L41.089,20.047 Q41.675,19.432 41.763,19.104 Q41.851,18.777 42.319,18.284 Q42.788,17.791 42.788,17.596 Q42.788,17.4 42.651,16.951 L42.837,16.893 Q43.003,17.371 43.115,17.503 Q43.228,17.635 43.379,17.649 Q43.53,17.664 43.789,17.688 Q44.048,17.713 44.204,17.732 Q44.692,17.791 45.137,17.923 Q45.581,18.055 46.597,18.304 Q47.612,18.553 48.218,18.714 Q48.823,18.875 49.634,19.129 Q51.216,19.637 52.554,20.467 Q52.642,20.525 52.812,20.525 Q52.983,20.525 53.452,20.213 L53.55,20.369 Q53.179,20.613 53.057,20.73 Q52.935,20.848 52.935,20.984 Q52.935,21.121 53.262,21.399 Q53.589,21.678 53.652,21.849 Q53.716,22.02 54.067,22.195 Q54.419,22.371 54.692,22.371 Q54.966,22.371 55.396,22.312 L55.415,22.43 Q54.253,22.576 54.253,23.025 Q54.253,23.113 54.292,23.191 Q54.771,24.051 54.771,25.633 Q54.771,27.029 53.794,28.289 Q53.374,28.836 52.881,29.441 Q52.388,30.047 51.968,30.574 Q50.991,31.785 50.991,33.074 L50.835,33.055 L50.874,32.391 Q50.874,31.746 50.786,31.409 Q50.698,31.072 50.415,31.072 L49.79,31.189 Q49.644,31.238 48.857,31.341 Q48.071,31.443 47.729,31.746 L47.671,31.99 Q47.671,31.873 47.651,31.814 Q47.622,31.834 47.31,32.146 L47.231,32.088 Q47.505,31.795 47.593,31.668 z M46.089,28.768 L45.952,29.451 Q45.952,29.871 46.089,29.871 L46.157,29.832 Q46.45,29.832 46.533,29.632 Q46.616,29.432 46.616,28.914 L46.831,28.914 Q46.87,29.578 47.095,29.686 Q47.212,29.686 47.417,29.559 Q47.622,29.432 47.769,29.432 L48.237,29.51 Q48.413,29.51 48.511,29.314 Q48.608,29.119 48.887,28.904 Q49.165,28.689 49.429,28.543 Q49.692,28.396 49.902,28.196 Q50.112,27.996 50.112,27.811 Q50.112,27.625 49.712,27.234 L49.917,27.01 Q50.288,27.391 50.454,27.391 Q50.62,27.391 50.796,27.234 L50.972,27.068 Q51.021,27.02 51.04,26.941 Q51.06,26.863 51.084,26.731 Q51.108,26.6 51.118,26.561 Q51.128,26.521 51.157,26.438 Q51.187,26.355 51.216,26.336 Q51.362,26.18 51.597,26.092 Q51.704,26.033 51.733,25.887 L51.851,25.271 Q51.851,25.174 51.807,25.081 Q51.763,24.988 51.704,24.607 Q51.548,23.67 51.274,23.67 L50.532,23.895 L50.356,23.211 Q50.903,23.104 51.021,22.889 Q51.06,22.83 51.089,22.752 L51.089,22.732 Q50.542,21.658 49.502,20.804 Q48.462,19.949 47.476,19.949 Q47.212,19.949 47.212,20.135 L47.251,20.408 Q47.251,20.652 47.051,21.482 Q46.851,22.312 46.851,22.391 Q46.851,22.615 47.456,22.908 L47.349,23.074 Q46.909,22.83 46.724,22.83 Q46.538,22.83 46.406,23.06 Q46.274,23.289 46.274,23.44 Q46.274,23.592 46.294,23.67 Q46.353,23.914 46.665,23.914 Q46.978,23.914 47.173,23.895 L47.192,24.012 Q46.685,24.07 46.558,24.119 Q46.431,24.168 46.411,24.285 L46.011,26.014 L45.991,26.072 L46.157,26.629 L45.972,27.547 z" fill="#93241C"/>
    <path d="M56.665,19.393 L55.786,19.354 Q55.542,19.354 54.985,19.832 L54.888,19.715 Q55.269,19.373 55.376,19.202 Q55.483,19.031 55.483,18.846 L55.483,18.133 Q55.483,17.947 55.376,17.776 Q55.269,17.605 54.907,17.254 L55.005,17.127 Q55.581,17.654 55.864,17.654 Q56.567,17.654 57.944,17.459 Q59.321,17.264 59.717,17.161 Q60.112,17.059 60.171,16.971 Q60.229,16.883 60.229,16.57 L60.229,16.268 L60.386,16.248 Q60.386,16.414 60.396,16.526 Q60.405,16.639 60.41,16.727 Q60.415,16.814 60.444,16.868 Q60.474,16.922 60.483,16.956 Q60.493,16.99 60.542,17.005 Q60.591,17.02 60.61,17.02 Q60.708,17.049 60.84,17.049 Q60.972,17.049 61.392,16.473 L61.489,16.531 Q61.108,17.059 61.108,17.234 L61.265,17.947 L61.265,18.113 Q61.265,18.289 61.792,18.826 L61.724,18.895 Q61.226,18.328 61.05,18.328 L60.806,18.309 Q60.728,18.309 60.61,18.348 L59.771,19.07 Q59.663,19.148 59.663,19.285 Q59.663,19.422 59.683,19.627 Q59.702,19.832 59.761,20.164 Q59.878,20.945 60.308,20.945 Q60.464,20.945 60.728,20.887 L60.786,21.229 Q60.571,21.277 60.439,21.336 Q60.308,21.395 60.239,21.424 Q60.171,21.453 60.142,21.565 Q60.112,21.678 60.112,21.707 L60.112,21.912 Q60.112,22.146 60.259,22.239 Q60.405,22.332 60.933,22.332 L60.933,22.547 Q60.435,22.547 60.303,22.615 Q60.171,22.684 60.142,22.889 Q60.112,23.094 60.112,23.553 L60.249,27.693 L60.249,28.094 Q60.249,28.162 60.337,28.328 Q60.425,28.494 60.601,28.494 Q60.776,28.494 61.206,28.328 L61.284,28.553 Q60.63,28.787 60.63,29.012 Q60.63,29.09 60.649,29.129 L60.728,29.471 Q60.786,29.686 61.03,29.686 L62.026,29.51 Q62.212,29.441 62.319,29.29 Q62.427,29.139 62.563,28.65 L62.749,28.689 Q62.632,29.168 62.632,29.354 Q62.632,29.734 62.925,29.734 L63.589,29.734 Q63.892,29.734 64.38,28.86 Q64.868,27.986 64.868,27.781 Q64.868,27.576 64.39,27.127 L64.507,27.01 Q64.946,27.449 65.132,27.449 Q65.688,27.449 66.265,25.945 L66.323,25.975 Q66.05,26.756 66.05,27.088 L66.05,29.031 Q66.05,29.48 65.669,30.257 Q65.288,31.033 65.288,31.434 Q65.288,31.658 65.845,32.049 L65.728,32.215 Q65.239,31.854 65.103,31.854 Q64.966,31.854 64.751,31.971 Q64.536,32.117 64.37,32.889 L64.272,32.869 Q64.37,32.439 64.37,32.21 Q64.37,31.98 64.204,31.673 Q64.038,31.365 64.009,31.229 Q63.843,31.277 63.774,31.409 Q63.706,31.541 63.706,31.873 L63.706,32.01 L63.384,32.01 Q63.374,31.512 63.271,31.38 Q63.169,31.248 62.866,31.229 Q62.563,31.209 61.675,31.209 Q60.786,31.209 60.303,31.36 Q59.819,31.512 58.853,32.068 Q58.726,32.156 58.667,32.312 Q58.608,32.469 58.55,32.967 L58.403,32.947 Q58.452,32.713 58.452,32.366 Q58.452,32.02 58.11,31.854 Q57.974,31.854 57.427,32.068 L57.388,31.971 Q57.847,31.775 57.959,31.692 Q58.071,31.609 58.071,31.512 L58.071,31.229 Q58.071,30.936 58.169,30.613 Q58.169,30.594 58.032,30.506 L58.188,30.574 L58.403,30.35 Q58.472,30.291 58.472,30.193 Q58.452,30.096 58.247,29.549 L58.345,29.51 Q58.501,29.93 58.647,30.154 Q58.745,30.076 58.745,29.969 Q58.745,29.861 58.682,29.69 Q58.618,29.52 58.569,28.963 Q58.521,28.406 58.403,28.06 Q58.286,27.713 58.003,27.713 Q57.866,27.713 57.563,27.771 L57.505,27.469 Q57.935,27.391 58.062,27.293 Q58.188,27.195 58.188,27.029 L58.188,26.912 Q58.13,26.434 57.759,24.734 Q57.388,23.035 57.368,22.254 Q57.368,22.234 57.188,21.858 Q57.007,21.482 57.007,21.092 L57.026,20.35 Q57.026,19.393 56.665,19.393 z" fill="#93241C"/>
    <path d="M70.161,32.43 L70.142,32.293 Q70.083,32.293 69.634,32.332 L69.634,32.234 L70.083,32.186 Q69.917,31.971 69.702,31.971 L68.618,31.971 Q68.462,31.971 67.822,32.415 Q67.183,32.859 67.183,33.113 L67.017,33.689 L66.743,33.611 L66.938,33.074 Q66.938,32.645 67.778,31.521 Q68.062,31.15 68.062,30.994 L67.915,19.334 Q67.915,19.168 67.627,19.021 Q67.339,18.875 67.305,18.714 Q67.271,18.553 66.982,18.431 Q66.694,18.309 66.523,18.309 Q66.353,18.309 65.962,18.807 L65.796,18.689 Q66.157,18.27 66.157,17.967 Q66.157,17.713 65.161,17.254 L65.181,17.215 Q65.874,17.527 66.138,17.527 L66.919,17.527 Q67.173,17.527 67.329,17.4 Q67.485,17.273 67.681,16.814 L67.935,16.912 Q67.759,17.371 67.759,17.62 Q67.759,17.869 68.076,18.05 Q68.394,18.23 68.755,18.23 L70.22,18.23 L70.62,17.674 L70.757,17.811 Q70.815,17.752 70.815,17.581 Q70.815,17.41 70.581,16.932 L70.776,16.834 Q71.001,17.293 71.128,17.41 Q71.255,17.527 71.46,17.527 L71.841,17.527 Q71.919,17.527 72.251,17.181 Q72.583,16.834 72.583,16.727 Q72.583,16.619 72.417,16.111 L72.515,16.072 Q72.671,16.541 72.744,16.653 Q72.817,16.766 72.915,16.766 L72.974,16.766 Q73.169,16.766 73.882,16.492 L73.901,16.531 Q73.228,16.775 73.042,16.932 L72.778,17.166 Q72.7,17.254 72.695,17.439 Q72.69,17.625 72.632,17.796 Q72.573,17.967 72.456,18.045 Q72.271,18.172 72.08,18.206 Q71.89,18.24 71.543,18.348 Q71.196,18.455 71.06,18.494 L71.118,18.865 Q71.138,19.051 71.284,19.119 Q71.431,19.188 71.841,19.188 L71.841,19.646 Q71.362,19.646 71.216,19.793 Q71.216,19.852 71.226,19.974 Q71.235,20.096 71.235,20.174 L71.196,19.812 Q71.099,19.91 71.099,20.271 L71.235,23.328 Q71.235,24.295 71.128,26.17 Q71.021,28.045 71.011,28.519 Q71.001,28.992 71.108,29.139 Q71.216,29.285 71.636,29.568 L71.538,29.734 Q71.021,29.393 70.737,29.393 Q70.454,29.393 70.454,29.666 L70.454,30.525 Q70.454,30.789 71.099,30.96 Q71.743,31.131 71.743,31.414 L71.714,31.492 Q71.714,31.58 71.86,31.854 Q72.007,32.127 72.036,32.215 Q72.144,32.615 72.681,33.152 L72.603,33.25 Q71.978,32.625 71.655,32.547 L71.636,32.547 L71.577,32.527 Q71.177,32.527 71.177,33.494 L70.942,33.475 Q70.942,33.094 70.781,32.742 Q70.62,32.391 70.298,32.312 L70.103,32.674 Q70.161,32.537 70.161,32.43 z M71.343,20.828 Q71.265,20.438 71.235,20.174 z" fill="#93241C"/>
    <path d="M81.646,32.01 Q81.06,32.01 80.991,33.055 L80.825,33.025 Q80.845,32.869 80.845,32.625 Q80.845,32.381 80.767,32.215 Q80.688,32.049 80.591,32.049 L80.024,33.094 Q80.2,32.713 80.215,32.386 Q80.229,32.059 79.946,31.873 L79.868,31.873 Q79.751,31.912 79.712,31.971 L79.565,32.166 Q79.409,32.371 79.409,32.615 Q79.409,32.859 79.468,33.23 L79.312,33.25 Q79.194,32.459 78.931,32.254 Q77.603,31.131 76.968,31.131 Q76.665,31.131 76.284,31.609 L76.069,31.414 Q76.411,30.994 76.411,30.804 Q76.411,30.613 76.255,30.325 Q76.099,30.037 76.094,29.92 Q76.089,29.803 75.767,29.49 Q75.444,29.178 75.376,29.046 Q75.308,28.914 75.117,28.914 Q74.927,28.914 74.546,29.012 L74.507,28.865 Q75.171,28.689 75.2,28.611 Q75.229,28.533 75.229,28.27 Q75.229,28.006 74.8,27.205 Q74.37,26.404 74.37,25.867 L74.37,23.006 Q74.37,22.332 74.731,21.023 Q75.093,19.715 75.093,19.051 Q75.093,18.904 74.966,18.792 Q74.839,18.68 74.429,18.494 L74.507,18.309 Q74.946,18.494 75.146,18.494 Q75.347,18.494 75.713,18.016 Q76.079,17.537 76.343,17.078 Q76.606,16.619 76.606,16.59 Q76.606,16.365 76.372,15.887 L76.548,15.789 Q76.772,16.248 76.904,16.37 Q77.036,16.492 77.231,16.492 L77.729,16.492 Q77.886,16.492 77.998,16.365 Q78.11,16.238 78.11,16.038 Q78.11,15.838 78.013,15.506 L78.208,15.447 Q78.354,15.936 78.457,16.053 Q78.56,16.17 78.765,16.17 L80.171,16.17 Q80.376,16.17 80.464,16.141 Q80.679,16.053 80.786,15.428 L81.128,15.486 Q81.089,15.672 81.089,15.906 Q81.089,16.473 81.909,16.473 Q82.026,16.473 82.114,16.346 Q82.202,16.219 82.349,15.809 L82.505,15.848 Q82.349,16.277 82.349,16.448 Q82.349,16.619 82.505,16.717 Q82.661,16.814 82.93,16.917 Q83.198,17.02 83.501,17.166 Q84.253,17.537 84.692,18.309 Q84.79,18.445 84.927,18.445 L86.069,18.445 Q86.255,18.445 86.377,18.328 Q86.499,18.211 86.704,17.752 L86.89,17.83 Q86.665,18.318 86.665,18.479 Q86.665,18.641 86.812,18.797 Q86.958,18.953 87.144,18.953 Q87.329,18.953 87.749,18.787 L87.827,18.973 Q87.222,19.207 87.158,19.324 Q87.095,19.441 87.085,19.568 L87.026,21.727 Q87.026,22.039 87.573,22.566 L87.446,22.693 Q87.095,22.322 86.919,22.215 Q86.743,22.107 86.548,22.107 L86.509,22.107 Q86.489,22.146 86.489,22.308 Q86.489,22.469 86.948,22.83 L86.772,23.074 Q86.353,22.732 86.147,22.732 Q85.923,23.377 85.61,23.533 L85.347,23.191 L85.181,22.84 Q84.966,22.391 84.966,22.151 Q84.966,21.912 84.937,21.673 Q84.907,21.434 84.771,21.087 Q84.634,20.74 84.409,20.594 Q84.37,20.545 84.243,20.408 Q83.95,20.115 83.833,19.891 Q83.589,19.949 83.193,19.949 Q82.798,19.949 82.427,19.91 L82.886,19.91 Q83.022,19.91 83.115,19.832 Q83.208,19.754 83.208,19.568 Q83.208,19.383 82.808,19.026 Q82.407,18.67 82.231,18.67 L80.728,18.553 Q80.054,18.553 79.556,18.953 Q79.038,19.363 78.804,19.412 Q78.569,19.461 78.506,19.603 Q78.442,19.744 78.169,20.35 Q77.524,21.814 77.524,21.854 L77.524,25.867 Q77.524,26.854 78.159,27.742 Q79.019,28.953 79.224,29.412 Q79.282,29.529 79.849,29.642 Q80.415,29.754 80.645,29.754 Q80.874,29.754 81.001,29.622 Q81.128,29.49 81.353,29.109 L81.548,29.227 Q81.265,29.725 81.265,29.905 Q81.265,30.086 81.509,30.33 L81.392,30.555 Q81.851,30.086 82.432,28.831 Q83.013,27.576 83.013,26.727 Q83.013,26.365 82.173,26.365 Q81.899,26.365 81.304,26.854 L81.206,26.746 Q81.606,26.414 81.719,26.253 Q81.831,26.092 81.851,25.926 L81.851,25.906 Q81.851,24.939 81.733,24.31 Q81.616,23.68 81.147,22.791 L81.206,22.752 Q81.772,23.807 82.417,24.109 Q82.7,24.236 82.974,24.314 Q83.696,24.529 84.048,24.91 Q84.204,24.852 84.604,24.852 Q87.007,24.852 87.007,25.867 Q87.007,26.814 87.271,26.961 Q87.407,27.029 87.905,27.029 L87.905,27.234 Q87.407,27.234 87.271,27.288 Q87.134,27.342 87.085,27.508 L87.085,27.605 Q87.085,27.84 87.505,28.367 L87.388,28.475 Q87.085,28.064 86.934,27.957 Q86.782,27.85 86.606,27.85 L85.728,27.85 Q85.444,27.85 85.425,28.133 Q85.347,29.002 84.897,30.223 Q84.448,31.443 83.989,32.029 L83.97,31.951 Q83.97,32.176 84.048,32.366 Q84.126,32.557 84.448,33.025 L84.37,33.094 Q83.804,32.234 83.208,32.088 Q82.974,32.029 82.632,32.029 L82.046,32.029 z" fill="#93241C"/>
    <path d="M98.979,18.211 Q99.155,18.123 99.155,17.674 L99.155,17.273 L99.321,17.273 Q99.341,17.557 99.36,17.703 Q99.38,17.85 99.385,17.898 Q99.39,17.947 99.419,18.001 Q99.448,18.055 99.453,18.074 Q99.458,18.094 99.512,18.118 Q99.565,18.143 99.58,18.147 Q99.595,18.152 99.673,18.167 Q99.751,18.182 99.775,18.196 Q99.8,18.211 99.956,18.201 Q100.112,18.191 100.63,17.996 Q101.147,17.801 101.362,17.659 Q101.577,17.518 101.641,17.342 Q101.704,17.166 101.763,16.609 L101.899,16.629 Q101.86,16.932 101.86,17.239 Q101.86,17.547 101.953,17.659 Q102.046,17.771 102.28,17.771 Q102.515,17.771 102.954,17.713 L103.003,17.869 Q102.466,17.938 102.295,18.011 Q102.124,18.084 102.036,18.23 L101.899,18.572 Q101.86,18.689 101.86,18.748 Q101.86,19.012 102.378,19.432 L102.222,19.627 Q101.685,19.188 101.533,19.188 Q101.382,19.188 101.196,19.354 Q101.079,19.402 101.079,19.476 Q101.079,19.549 101.279,19.788 Q101.479,20.027 101.587,20.848 Q101.694,21.668 101.694,22.254 L101.597,26.727 Q101.577,26.893 101.558,27.171 Q101.538,27.449 101.519,27.571 Q101.499,27.693 101.44,27.879 Q101.353,28.191 101.021,28.426 Q100.903,28.523 100.903,28.67 L100.903,30.086 Q100.903,30.174 101.353,30.56 Q101.802,30.945 101.924,30.979 Q102.046,31.014 102.183,31.014 Q102.319,31.014 103.003,30.574 L103.062,30.691 Q102.603,30.984 102.466,31.116 Q102.329,31.248 102.3,31.395 L102.3,31.434 Q102.261,31.473 102.261,31.551 Q102.261,31.668 102.896,32.127 L102.817,32.273 Q102.319,31.912 102.168,31.912 Q102.017,31.912 101.938,31.951 L101.694,32.127 Q101.577,32.195 101.577,32.43 L101.597,32.674 L101.616,33.367 L101.274,33.367 L101.274,32.547 Q101.274,32.225 100.61,32.093 Q99.946,31.961 99.058,31.902 Q98.169,31.844 97.896,31.741 Q97.622,31.639 97.104,31.341 Q96.587,31.043 96.294,30.945 L96.382,30.213 Q96.636,30.105 97.261,30.105 L97.798,30.105 Q98.14,30.105 98.14,29.793 Q98.159,29.178 98.311,27.967 Q98.462,26.756 98.472,26.375 Q98.481,25.994 98.438,25.921 Q98.394,25.848 98.276,25.828 Q98.11,25.789 97.666,25.789 Q97.222,25.789 96.909,25.843 Q96.597,25.896 96.509,26.062 Q96.421,26.229 96.421,26.766 L96.177,26.766 Q96.177,26.229 96.099,26.062 Q96.021,25.896 95.752,25.853 Q95.483,25.809 94.58,25.809 Q93.677,25.809 93.638,26.15 L93.521,29.246 Q93.501,29.51 93.74,29.861 Q93.979,30.213 94.224,30.213 Q94.536,30.213 94.536,29.529 L94.536,29.266 L94.683,29.266 Q94.692,29.803 94.736,29.939 Q94.78,30.076 94.897,30.105 L95.122,30.174 Q95.161,30.193 95.293,30.193 Q95.425,30.193 96.157,29.891 L96.196,29.988 Q95.464,30.301 95.259,30.555 L95.22,30.652 Q95.122,30.779 95.122,30.906 L95.278,30.828 L95.239,30.975 Q95.161,30.975 95.122,30.994 Q95.151,31.238 95.503,31.668 L95.298,31.834 Q94.858,31.229 94.561,31.229 Q94.263,31.229 93.706,31.463 Q93.149,31.697 92.52,32.02 Q91.89,32.342 91.704,32.41 Q91.519,32.479 91.46,32.527 Q91.284,32.674 91.216,33.367 L91.021,33.348 Q91.04,33.133 91.04,32.791 Q91.04,32.449 90.894,32.449 Q90.747,32.449 90.645,32.562 Q90.542,32.674 90.542,32.83 L90.542,33.094 Q90.542,33.27 90.41,33.533 Q90.278,33.797 90.278,34.373 L90.278,34.715 L90.22,34.715 Q90.171,33.836 90.083,33.709 L90.034,33.592 Q89.956,33.514 89.785,33.514 Q89.614,33.514 89.136,33.611 L89.116,33.514 Q89.79,33.348 89.849,33.274 Q89.907,33.201 89.912,33.152 Q89.917,33.104 90.103,32.576 Q90.288,32.049 90.278,32.029 L89.917,31.414 Q89.839,31.258 89.658,31.175 Q89.478,31.092 88.921,30.994 L88.94,30.809 Q89.321,30.887 89.624,30.887 Q89.927,30.887 90.273,30.618 Q90.62,30.35 90.62,30.213 L90.62,26.873 Q90.62,26.707 90.459,26.346 Q90.298,25.984 90.298,25.809 L90.298,22.771 Q90.298,22.693 89.702,22.371 L89.878,21.971 L90.181,22.068 Q90.366,22.068 90.493,21.937 Q90.62,21.805 90.62,21.629 L90.483,19.91 Q90.483,19.861 90.376,19.754 L89.614,19.07 Q89.409,18.895 89.043,18.895 Q88.677,18.895 88.462,18.914 L88.462,18.709 Q89.292,18.65 89.556,18.348 L89.995,17.752 Q90.239,17.41 90.278,16.57 L90.396,16.57 Q90.376,16.746 90.376,17.166 Q90.376,17.586 90.542,17.791 Q90.688,17.908 91.772,18.05 Q92.856,18.191 93.184,18.191 Q93.511,18.191 93.633,18.06 Q93.755,17.928 93.999,17.488 L94.136,17.566 Q93.843,18.094 93.843,18.348 Q93.843,18.826 95.063,18.826 Q95.376,18.826 96.177,18.494 L96.216,18.611 Q95.493,18.914 95.259,19.148 L95.454,19.109 L95.337,19.549 L94.937,19.529 Q94.897,19.568 94.897,19.607 Q94.897,19.979 95.415,20.711 L95.298,20.789 Q94.956,20.33 94.785,20.184 Q94.614,20.037 94.419,19.988 L94.097,19.891 L93.999,19.891 Q93.784,19.891 93.652,20.193 Q93.521,20.496 93.521,20.652 L93.521,23.865 Q93.521,24.207 93.843,24.207 L95.454,24.207 Q95.659,24.207 96.001,24.026 Q96.343,23.846 96.553,23.846 Q96.763,23.846 97.178,24.007 Q97.593,24.168 97.764,24.168 Q97.935,24.168 98.037,24.065 Q98.14,23.963 98.14,23.807 L98.14,20.33 Q98.14,19.959 96.724,19.686 L96.44,18.973 Q96.685,18.973 96.86,19.031 Q96.987,19.031 97.075,18.924 Q97.163,18.816 97.163,18.606 Q97.163,18.396 97.056,18.006 L97.28,17.947 Q97.427,18.465 97.549,18.597 Q97.671,18.729 97.896,18.729 L97.983,18.729 Q98.081,18.729 98.384,18.47 Q98.687,18.211 98.979,18.211 z" fill="#93241C"/>
    <path d="M111.665,31.512 Q111.519,31.512 111.206,31.512 Q110.415,31.512 110.093,32.791 L109.956,32.752 Q110.112,31.99 110.112,31.907 Q110.112,31.824 110.005,31.551 Q109.897,31.277 109.79,30.472 Q109.683,29.666 109.419,29.129 Q109.341,29.012 108.96,29.012 Q108.979,28.992 108.999,28.992 L109.712,28.807 L109.937,29.793 L109.956,29.812 Q109.995,29.812 110.093,29.715 Q110.718,28.992 110.718,28.074 Q110.718,27.527 110.376,26.326 Q110.278,26.033 109.634,25.555 L109.712,25.447 Q110.259,25.848 110.493,25.906 Q110.718,25.848 110.718,25.613 L110.737,25.027 Q110.757,24.695 110.591,24.383 Q110.425,24.07 110.132,24.07 Q110.034,24.07 109.595,24.168 L109.536,23.934 Q110.024,23.807 110.142,23.689 Q110.259,23.572 110.259,23.23 Q110.259,22.889 110.239,22.601 Q110.22,22.312 110.142,21.961 Q109.985,21.268 109.419,21.268 Q109.214,21.268 109.097,21.307 L108.979,20.809 Q109.634,20.643 109.634,20.213 Q109.634,19.588 109.458,19.588 Q109.341,19.588 109.268,19.695 Q109.194,19.803 109.194,19.949 Q109.194,20.096 109.312,20.506 L109.097,20.574 Q108.95,20.145 108.843,20.018 Q108.735,19.891 108.452,19.891 Q108.169,19.891 107.607,20.052 Q107.046,20.213 107.002,20.467 Q106.958,20.721 106.646,21.092 Q106.333,21.463 106.328,21.634 Q106.323,21.805 106.216,21.946 Q106.108,22.088 105.991,22.137 Q105.669,22.273 105.625,22.483 Q105.581,22.693 105.508,22.811 Q105.435,22.928 105.347,23.016 Q105.122,23.24 104.878,24.188 L104.78,24.168 Q104.937,23.533 104.937,23.25 L104.751,21.609 Q104.751,20.984 104.956,20.408 L104.976,20.33 L104.731,19.568 L104.751,16.053 Q104.751,15.809 104.214,15.252 L104.292,15.174 Q104.829,15.73 105.073,15.73 L105.112,15.73 Q105.249,15.73 105.366,15.613 Q105.483,15.496 105.718,15.047 L105.835,15.135 Q105.552,15.652 105.552,15.789 Q105.552,15.926 105.62,15.994 L105.952,16.492 Q106.069,16.59 106.245,16.604 Q106.421,16.619 106.855,16.873 Q107.29,17.127 107.5,17.127 Q107.71,17.127 107.896,17.098 Q108.081,17.068 108.408,17.029 Q108.735,16.99 109.165,16.951 Q110.259,16.854 111.655,16.854 L113.774,16.873 Q113.999,16.873 114.404,17.073 Q114.81,17.273 115.039,17.273 Q115.269,17.273 115.674,17 Q116.079,16.727 116.221,16.663 Q116.362,16.6 116.431,16.443 Q116.499,16.287 116.538,15.789 L116.694,15.809 L116.675,16.131 Q116.675,16.59 116.899,16.707 L117.798,17.273 Q117.925,17.371 118.11,17.371 Q118.296,17.371 118.794,17.127 L118.872,17.312 Q118.423,17.498 118.276,17.63 Q118.13,17.762 118.101,17.947 Q117.876,19.051 117.876,19.524 Q117.876,19.998 117.92,20.145 Q117.964,20.291 118.213,20.53 Q118.462,20.77 118.94,20.975 L118.872,21.111 Q118.306,20.848 118.032,20.848 Q117.495,20.848 117.495,21.209 Q117.495,21.365 117.554,21.746 L117.456,21.746 Q117.388,21.141 117.339,21.082 Q117.29,21.023 117.231,21.014 L117.153,21.014 Q117.026,21.014 116.88,21.17 Q116.733,21.326 116.519,21.59 L116.44,21.531 Q116.86,21.004 116.86,20.848 Q116.86,20.447 116.177,20.169 Q115.493,19.891 115.156,19.891 Q114.819,19.891 114.692,20.013 Q114.565,20.135 114.36,20.525 L114.194,20.447 Q114.458,19.93 114.458,19.788 Q114.458,19.646 114.36,19.549 L114.38,19.588 Q114.312,19.52 113.901,19.417 Q113.491,19.314 113.384,19.314 Q113.276,19.314 113.198,19.393 L112.534,20.047 Q112.456,20.125 112.456,20.232 L112.456,22.635 Q112.456,22.801 112.324,23.128 Q112.192,23.455 112.192,23.606 Q112.192,23.758 112.334,24.002 Q112.476,24.246 112.476,24.373 L112.358,25.232 L112.456,27.029 Q112.456,28.25 112.251,28.826 Q112.251,28.992 112.319,29.051 L112.856,29.666 Q112.944,29.793 113.057,29.793 Q113.169,29.793 113.813,29.627 L113.872,29.832 Q113.403,29.979 113.262,30.096 Q113.12,30.213 113.101,30.389 Q112.974,31.199 112.534,31.59 Q112.456,31.707 112.456,31.785 L112.495,32.371 L112.231,32.352 L112.192,31.814 Q112.192,31.512 111.665,31.512 z" fill="#93241C"/>
    <path d="M17.017,68.99 Q17.642,68.883 17.642,68.629 L17.603,67.789 Q17.573,67.643 17.544,67.613 L17.476,67.594 Q17.476,67.525 17.28,67.525 Q17.085,67.525 16.577,67.828 L16.479,67.691 Q16.87,67.438 16.987,67.296 Q17.104,67.154 17.114,66.92 Q17.124,66.686 17.114,66.534 Q17.104,66.383 17.051,66.163 Q16.997,65.943 16.865,65.836 Q16.733,65.729 16.519,65.729 Q16.304,65.729 16.196,65.748 L16.138,65.406 Q16.616,65.338 16.729,65.206 Q16.841,65.074 16.841,64.752 L16.841,64.566 Q16.841,64.215 16.479,63.57 L16.558,63.531 Q16.899,64.166 17.202,64.391 L17.524,64.586 L17.622,64.635 Q18.442,64.723 18.501,66.432 Q18.501,66.5 18.647,66.676 Q19.233,67.379 19.302,67.56 Q19.37,67.74 19.395,67.789 Q19.419,67.838 19.438,67.867 Q19.458,67.896 19.478,67.926 Q19.507,67.975 19.561,67.975 Q19.614,67.975 19.658,67.877 Q19.702,67.779 19.702,67.574 Q19.702,67.369 19.517,67.047 L19.683,66.969 Q19.868,67.398 19.99,67.516 Q20.112,67.633 20.298,67.633 L21.001,67.633 Q21.44,67.633 21.997,67.467 Q22.056,67.369 22.402,67.125 Q22.749,66.881 22.798,66.607 L22.876,65.152 Q22.876,65.035 22.603,64.469 L21.343,63.414 Q21.304,63.365 21.196,63.365 L20.62,63.365 Q20.396,63.365 20.249,63.473 Q20.103,63.58 19.897,64.01 L19.702,63.932 Q19.917,63.492 19.917,63.253 Q19.917,63.014 19.702,62.862 Q19.487,62.711 19.229,62.711 Q18.97,62.711 18.677,63.268 L18.462,63.15 Q18.677,62.73 18.677,62.594 Q18.677,62.457 18.53,62.35 Q18.384,62.242 18.188,62.164 Q17.671,61.959 17.397,61.627 Q17.134,61.393 16.44,61.393 L16.44,61.227 L16.616,61.227 Q17.212,61.227 17.397,61.012 L17.583,60.807 Q17.427,60.572 17.31,60.572 Q17.192,60.572 16.685,60.729 L16.577,60.475 Q16.89,60.318 17.007,60.211 Q17.124,60.104 17.124,59.967 Q17.124,59.83 17.026,59.615 Q16.929,59.4 16.86,59.088 Q16.313,58.629 15.796,58.629 Q15.64,58.629 15.562,58.648 L15.317,57.486 Q15.815,57.398 16.152,56.891 Q16.489,56.383 16.763,55.309 L16.362,54.449 Q16.392,54.332 16.528,54.332 Q16.812,54.332 17.339,54.742 L17.524,54.889 Q17.583,54.83 17.583,54.771 Q17.69,54.303 18.804,54.215 Q19.897,54.117 19.897,53.551 Q19.897,53.346 19.878,53.229 L20.181,53.209 Q20.249,53.824 20.474,53.902 Q20.562,53.932 20.737,53.932 L21.724,53.951 Q21.88,53.951 21.978,53.834 Q22.075,53.717 22.241,53.307 L22.456,53.365 Q22.339,53.658 22.339,53.951 Q22.339,54.234 23.423,54.869 Q23.745,55.055 23.745,55.074 Q23.745,55.094 23.716,55.094 Q23.823,55.094 23.901,55.006 L25.356,53.473 L25.522,53.59 L25.239,54.371 Q25.22,54.41 25.22,54.469 Q25.22,54.527 25.439,54.874 Q25.659,55.221 25.659,55.475 Q25.659,56.852 24.663,60.172 Q24.644,60.172 24.644,60.328 Q24.644,60.484 24.78,61.07 L24.722,61.09 Q24.517,60.182 24.233,60.035 Q24.116,59.986 23.936,59.908 Q23.755,59.83 23.589,59.674 Q23.423,59.518 23.179,58.614 Q22.935,57.711 22.876,57.584 Q22.817,57.457 22.539,57.091 Q22.261,56.725 22.251,56.559 Q22.241,56.393 22.183,56.334 L21.421,55.631 Q21.333,55.514 21.245,55.514 Q21.001,55.514 21.001,55.802 Q21.001,56.09 21.099,56.373 L20.923,56.432 Q20.796,55.982 20.688,55.865 Q20.581,55.748 20.396,55.748 L19.78,55.748 Q19.683,55.748 19.624,55.807 L19.038,56.314 Q18.979,56.314 18.979,56.51 L18.979,58.229 Q18.999,58.414 19.058,58.414 Q19.419,58.697 20.586,59.4 Q21.753,60.104 22.666,60.763 Q23.579,61.422 23.784,61.91 Q23.843,62.047 23.96,62.047 Q24.644,62.223 24.644,64.488 Q24.644,66.314 24.448,66.793 Q24.067,67.77 23.423,68.268 Q23.345,68.385 23.315,68.541 Q23.286,68.697 22.944,69.049 Q22.603,69.4 22.544,69.635 Q22.31,69.771 21.753,69.771 Q21.196,69.771 20.293,69.649 Q19.39,69.527 18.94,69.527 Q18.491,69.527 18.232,69.664 Q17.974,69.801 17.681,70.289 L17.437,70.152 Q17.739,69.635 17.739,69.312 Q17.739,69.146 17.544,69.146 Q17.349,69.146 17.036,69.215 z M17.661,60.953 L17.583,60.807 Q17.612,60.914 17.661,60.953 z" fill="#93241C"/>
    <path d="M35.122,68.512 Q34.976,68.512 34.663,68.512 Q33.872,68.512 33.55,69.791 L33.413,69.752 Q33.569,68.99 33.569,68.907 Q33.569,68.824 33.462,68.551 Q33.354,68.277 33.247,67.472 Q33.14,66.666 32.876,66.129 Q32.798,66.012 32.417,66.012 Q32.437,65.992 32.456,65.992 L33.169,65.807 L33.394,66.793 L33.413,66.812 Q33.452,66.812 33.55,66.715 Q34.175,65.992 34.175,65.074 Q34.175,64.527 33.833,63.326 Q33.735,63.033 33.091,62.555 L33.169,62.447 Q33.716,62.848 33.95,62.906 Q34.175,62.848 34.175,62.613 L34.194,62.027 Q34.214,61.695 34.048,61.383 Q33.882,61.07 33.589,61.07 Q33.491,61.07 33.052,61.168 L32.993,60.934 Q33.481,60.807 33.599,60.689 Q33.716,60.572 33.716,60.23 Q33.716,59.889 33.696,59.601 Q33.677,59.312 33.599,58.961 Q33.442,58.268 32.876,58.268 Q32.671,58.268 32.554,58.307 L32.437,57.809 Q33.091,57.643 33.091,57.213 Q33.091,56.588 32.915,56.588 Q32.798,56.588 32.725,56.695 Q32.651,56.803 32.651,56.949 Q32.651,57.096 32.769,57.506 L32.554,57.574 Q32.407,57.145 32.3,57.018 Q32.192,56.891 31.909,56.891 Q31.626,56.891 31.064,57.052 Q30.503,57.213 30.459,57.467 Q30.415,57.721 30.103,58.092 Q29.79,58.463 29.785,58.634 Q29.78,58.805 29.673,58.946 Q29.565,59.088 29.448,59.137 Q29.126,59.273 29.082,59.483 Q29.038,59.693 28.965,59.811 Q28.892,59.928 28.804,60.016 Q28.579,60.24 28.335,61.188 L28.237,61.168 Q28.394,60.533 28.394,60.25 L28.208,58.609 Q28.208,57.984 28.413,57.408 L28.433,57.33 L28.188,56.568 L28.208,53.053 Q28.208,52.809 27.671,52.252 L27.749,52.174 Q28.286,52.73 28.53,52.73 L28.569,52.73 Q28.706,52.73 28.823,52.613 Q28.94,52.496 29.175,52.047 L29.292,52.135 Q29.009,52.652 29.009,52.789 Q29.009,52.926 29.077,52.994 L29.409,53.492 Q29.526,53.59 29.702,53.604 Q29.878,53.619 30.312,53.873 Q30.747,54.127 30.957,54.127 Q31.167,54.127 31.353,54.098 Q31.538,54.068 31.865,54.029 Q32.192,53.99 32.622,53.951 Q33.716,53.854 35.112,53.854 L37.231,53.873 Q37.456,53.873 37.861,54.073 Q38.267,54.273 38.496,54.273 Q38.726,54.273 39.131,54 Q39.536,53.727 39.678,53.663 Q39.819,53.6 39.888,53.443 Q39.956,53.287 39.995,52.789 L40.151,52.809 L40.132,53.131 Q40.132,53.59 40.356,53.707 L41.255,54.273 Q41.382,54.371 41.567,54.371 Q41.753,54.371 42.251,54.127 L42.329,54.312 Q41.88,54.498 41.733,54.63 Q41.587,54.762 41.558,54.947 Q41.333,56.051 41.333,56.524 Q41.333,56.998 41.377,57.145 Q41.421,57.291 41.67,57.53 Q41.919,57.77 42.397,57.975 L42.329,58.111 Q41.763,57.848 41.489,57.848 Q40.952,57.848 40.952,58.209 Q40.952,58.365 41.011,58.746 L40.913,58.746 Q40.845,58.141 40.796,58.082 Q40.747,58.023 40.688,58.014 L40.61,58.014 Q40.483,58.014 40.337,58.17 Q40.19,58.326 39.976,58.59 L39.897,58.531 Q40.317,58.004 40.317,57.848 Q40.317,57.447 39.634,57.169 Q38.95,56.891 38.613,56.891 Q38.276,56.891 38.149,57.013 Q38.022,57.135 37.817,57.525 L37.651,57.447 Q37.915,56.93 37.915,56.788 Q37.915,56.646 37.817,56.549 L37.837,56.588 Q37.769,56.52 37.358,56.417 Q36.948,56.314 36.841,56.314 Q36.733,56.314 36.655,56.393 L35.991,57.047 Q35.913,57.125 35.913,57.232 L35.913,59.635 Q35.913,59.801 35.781,60.128 Q35.649,60.455 35.649,60.606 Q35.649,60.758 35.791,61.002 Q35.933,61.246 35.933,61.373 L35.815,62.232 L35.913,64.029 Q35.913,65.25 35.708,65.826 Q35.708,65.992 35.776,66.051 L36.313,66.666 Q36.401,66.793 36.514,66.793 Q36.626,66.793 37.271,66.627 L37.329,66.832 Q36.86,66.979 36.719,67.096 Q36.577,67.213 36.558,67.389 Q36.431,68.199 35.991,68.59 Q35.913,68.707 35.913,68.785 L35.952,69.371 L35.688,69.352 L35.649,68.814 Q35.649,68.512 35.122,68.512 z" fill="#93241C"/>
    <path d="M55.933,61.715 L55.952,62.311 Q55.952,63.062 55.532,63.434 Q55.493,63.512 55.493,63.531 Q55.493,64.908 54.917,65.494 Q54.839,65.602 54.839,65.65 Q54.819,66.588 54.346,67.467 Q53.872,68.346 53.071,68.746 Q52.974,68.746 52.974,68.868 Q52.974,68.99 53.071,69.43 L52.974,69.488 Q52.847,69.137 52.783,69.034 Q52.72,68.932 52.632,68.932 Q52.28,68.932 51.68,69.347 Q51.079,69.762 50.884,69.776 Q50.688,69.791 50.571,69.889 L50.22,70.475 Q50.103,70.592 50.078,70.729 Q50.054,70.865 50.034,70.943 Q49.946,71.285 49.937,71.373 L49.858,71.373 Q49.956,70.924 49.956,70.528 Q49.956,70.133 49.59,69.566 Q49.224,69 48.696,68.57 Q47.583,67.662 46.772,67.467 L46.792,67.408 Q47.358,67.506 47.466,67.506 Q47.573,67.506 47.622,67.467 Q47.69,67.418 47.69,67.271 Q47.534,67.096 47.114,65.719 Q45.923,61.891 45.415,61.891 Q45.347,61.891 44.819,62.008 L44.8,61.773 Q45.386,61.627 45.396,61.627 Q45.591,61.539 45.591,61.285 L45.61,60.572 L45.61,60.211 Q45.61,58.619 45.122,57.828 Q44.653,57.066 43.657,57.047 Q43.481,57.047 43.34,57.14 Q43.198,57.232 42.935,57.574 L42.798,57.467 Q43.179,56.969 43.179,56.793 L43.179,56.646 L43.091,56.354 Q43.042,56.197 42.925,56.095 Q42.808,55.992 42.417,55.826 L42.476,55.689 Q42.866,55.865 43.027,55.865 Q43.188,55.865 43.496,55.729 Q43.804,55.592 43.853,55.592 L43.872,55.611 Q43.872,55.348 43.394,54.869 L43.491,54.752 Q43.97,55.211 44.233,55.211 L46.216,55.113 Q46.343,55.113 46.392,55.094 Q46.519,55.035 46.558,54.488 L46.733,54.488 Q46.733,55.025 46.807,55.074 Q46.88,55.123 47.017,55.133 L47.671,55.23 Q47.7,55.23 47.778,55.191 L48.599,54.732 Q48.862,54.625 49.116,53.951 L49.214,54.01 Q49.019,54.527 49.019,54.669 Q49.019,54.811 49.058,54.928 L49.399,55.895 Q49.458,55.895 49.517,56.07 Q49.712,56.07 50.19,55.592 L50.278,55.65 Q49.8,56.148 49.8,56.354 L49.8,56.412 Q49.8,56.539 49.956,56.661 Q50.112,56.783 50.356,56.93 L50.298,57.027 Q49.829,56.773 49.741,56.773 Q49.653,56.773 49.575,56.812 Q49.116,57.086 48.335,57.086 L48.11,57.086 Q47.905,57.086 47.812,57.301 Q47.72,57.516 47.72,57.794 Q47.72,58.072 47.754,58.414 Q47.788,58.756 47.876,59.176 Q48.052,60.113 48.657,60.113 Q48.774,60.113 49.077,60.055 L49.136,60.27 Q48.735,60.377 48.623,60.489 Q48.511,60.602 48.511,60.787 L48.511,61.686 Q48.511,61.764 48.608,61.896 Q48.706,62.027 48.721,62.491 Q48.735,62.955 48.833,63.111 Q49.194,63.512 49.536,65.094 Q49.653,65.631 49.634,65.611 L50.757,66.793 Q50.835,66.832 50.913,66.832 L52.593,66.832 Q53.374,65.855 53.423,65.65 Q53.54,65.162 53.54,64.947 Q53.54,64.732 53.438,64.654 Q53.335,64.576 52.974,64.43 L53.032,64.312 Q53.345,64.43 53.579,64.43 Q53.813,64.43 53.931,64.044 Q54.048,63.658 54.082,63.165 Q54.116,62.672 54.136,62.613 L54.233,60.865 Q54.233,60.289 54.121,59.381 Q54.009,58.473 53.755,57.828 L53.218,56.773 Q53.13,56.646 53.013,56.646 L52.856,56.646 Q52.671,56.646 52.568,56.803 Q52.466,56.959 52.339,57.252 L52.173,57.174 Q52.358,56.793 52.358,56.666 Q52.358,56.539 52.305,56.446 Q52.251,56.354 52.148,56.222 Q52.046,56.09 51.958,55.978 Q51.87,55.865 51.743,55.719 L51.577,55.514 Q51.274,55.24 50.659,55.055 L50.698,54.928 Q51.226,55.113 51.411,55.113 L52.759,54.928 L52.817,54.928 Q53.042,54.928 53.237,54.332 L53.394,54.391 Q53.276,54.752 53.276,54.923 Q53.276,55.094 53.394,55.133 Q53.745,55.406 53.892,55.406 Q54.038,55.406 54.038,55.367 Q54.038,55.182 53.95,55.035 Q53.862,54.889 53.56,54.566 L53.657,54.469 Q54.106,54.928 54.419,54.967 L56.997,55.094 Q57.202,55.094 57.251,54.488 L57.437,54.488 L57.437,54.83 Q57.437,55.084 57.495,55.113 Q57.554,55.143 57.632,55.152 L57.671,55.152 Q57.72,55.172 57.9,55.172 Q58.081,55.172 58.579,54.928 L58.618,55.055 Q57.964,55.328 57.837,55.553 L57.017,56.754 Q56.938,56.91 56.938,57.003 Q56.938,57.096 57.231,57.525 L57.075,57.613 Q56.704,57.174 56.577,57.174 Q56.45,57.174 56.235,57.271 Q55.874,57.369 55.874,58.395 Q55.874,59.42 56.235,60.094 Q56.265,60.24 56.519,60.309 L57.017,60.328 L56.997,60.572 Q56.675,60.553 56.509,60.562 Q56.245,60.582 56.196,60.748 Q55.933,61.129 55.933,61.715 z" fill="#93241C"/>
    <path d="M65.181,68.668 Q65.103,68.531 64.985,68.395 Q64.897,68.404 64.849,68.434 Q64.731,68.521 64.604,69.146 L64.458,69.107 Q64.536,68.746 64.536,68.521 Q64.536,68.297 64.263,68.194 Q63.989,68.092 63.696,68.092 Q62.573,68.092 61.758,68.6 Q60.942,69.107 60.942,69.83 L60.718,69.752 L60.884,69.107 Q60.884,68.912 61.021,68.541 Q61.157,68.17 61.157,67.975 Q61.157,67.779 60.581,67.467 L60.698,67.291 Q61.128,67.525 61.274,67.525 Q61.421,67.525 61.558,67.389 L61.763,67.105 Q61.802,67.066 61.802,66.979 Q61.802,66.891 61.782,66.852 Q61.382,65.924 61.382,64.186 L61.284,63.492 L61.304,63.326 Q61.304,63.268 61.265,63.189 Q60.962,62.73 60.962,62.262 Q60.962,61.793 61.016,61.471 Q61.069,61.148 61.123,60.929 Q61.177,60.709 61.289,60.333 Q61.401,59.957 61.421,59.815 Q61.44,59.674 61.421,59.605 L61.323,59.43 Q61.187,59.186 60.967,59.186 Q60.747,59.186 60.405,59.234 L60.376,59.01 Q60.854,58.941 61.001,58.849 Q61.147,58.756 61.196,58.57 Q61.304,58.033 61.304,57.574 Q61.304,57.115 61.113,56.554 Q60.923,55.992 60.62,55.992 Q60.542,55.992 60.503,56.012 L59.644,56.373 Q59.302,56.52 58.765,57.135 L58.677,57.047 Q59.263,56.432 59.351,56.104 Q59.438,55.777 59.907,55.284 Q60.376,54.791 60.376,54.596 Q60.376,54.4 60.239,53.951 L60.425,53.893 Q60.591,54.371 60.703,54.503 Q60.815,54.635 60.967,54.649 Q61.118,54.664 61.377,54.688 Q61.636,54.713 61.792,54.732 Q62.28,54.791 62.725,54.923 Q63.169,55.055 64.185,55.304 Q65.2,55.553 65.806,55.714 Q66.411,55.875 67.222,56.129 Q68.804,56.637 70.142,57.467 Q70.229,57.525 70.4,57.525 Q70.571,57.525 71.04,57.213 L71.138,57.369 Q70.767,57.613 70.645,57.73 Q70.522,57.848 70.522,57.984 Q70.522,58.121 70.85,58.399 Q71.177,58.678 71.24,58.849 Q71.304,59.02 71.655,59.195 Q72.007,59.371 72.28,59.371 Q72.554,59.371 72.983,59.312 L73.003,59.43 Q71.841,59.576 71.841,60.025 Q71.841,60.113 71.88,60.191 Q72.358,61.051 72.358,62.633 Q72.358,64.029 71.382,65.289 Q70.962,65.836 70.469,66.441 Q69.976,67.047 69.556,67.574 Q68.579,68.785 68.579,70.074 L68.423,70.055 L68.462,69.391 Q68.462,68.746 68.374,68.409 Q68.286,68.072 68.003,68.072 L67.378,68.189 Q67.231,68.238 66.445,68.341 Q65.659,68.443 65.317,68.746 L65.259,68.99 Q65.259,68.873 65.239,68.814 Q65.21,68.834 64.897,69.146 L64.819,69.088 Q65.093,68.795 65.181,68.668 z M63.677,65.768 L63.54,66.451 Q63.54,66.871 63.677,66.871 L63.745,66.832 Q64.038,66.832 64.121,66.632 Q64.204,66.432 64.204,65.914 L64.419,65.914 Q64.458,66.578 64.683,66.686 Q64.8,66.686 65.005,66.559 Q65.21,66.432 65.356,66.432 L65.825,66.51 Q66.001,66.51 66.099,66.314 Q66.196,66.119 66.475,65.904 Q66.753,65.689 67.017,65.543 Q67.28,65.396 67.49,65.196 Q67.7,64.996 67.7,64.811 Q67.7,64.625 67.3,64.234 L67.505,64.01 Q67.876,64.391 68.042,64.391 Q68.208,64.391 68.384,64.234 L68.56,64.068 Q68.608,64.02 68.628,63.941 Q68.647,63.863 68.672,63.731 Q68.696,63.6 68.706,63.561 Q68.716,63.521 68.745,63.438 Q68.774,63.355 68.804,63.336 Q68.95,63.18 69.185,63.092 Q69.292,63.033 69.321,62.887 L69.438,62.271 Q69.438,62.174 69.395,62.081 Q69.351,61.988 69.292,61.607 Q69.136,60.67 68.862,60.67 L68.12,60.895 L67.944,60.211 Q68.491,60.104 68.608,59.889 Q68.647,59.83 68.677,59.752 L68.677,59.732 Q68.13,58.658 67.09,57.804 Q66.05,56.949 65.063,56.949 Q64.8,56.949 64.8,57.135 L64.839,57.408 Q64.839,57.652 64.639,58.482 Q64.438,59.312 64.438,59.391 Q64.438,59.615 65.044,59.908 L64.937,60.074 Q64.497,59.83 64.312,59.83 Q64.126,59.83 63.994,60.06 Q63.862,60.289 63.862,60.44 Q63.862,60.592 63.882,60.67 Q63.94,60.914 64.253,60.914 Q64.565,60.914 64.761,60.895 L64.78,61.012 Q64.272,61.07 64.146,61.119 Q64.019,61.168 63.999,61.285 L63.599,63.014 L63.579,63.072 L63.745,63.629 L63.56,64.547 z" fill="#93241C"/>
    <path d="M76.978,69.43 L76.958,69.293 Q76.899,69.293 76.45,69.332 L76.45,69.234 L76.899,69.186 Q76.733,68.971 76.519,68.971 L75.435,68.971 Q75.278,68.971 74.639,69.415 Q73.999,69.859 73.999,70.113 L73.833,70.689 L73.56,70.611 L73.755,70.074 Q73.755,69.645 74.595,68.521 Q74.878,68.15 74.878,67.994 L74.731,56.334 Q74.731,56.168 74.443,56.021 Q74.155,55.875 74.121,55.714 Q74.087,55.553 73.799,55.431 Q73.511,55.309 73.34,55.309 Q73.169,55.309 72.778,55.807 L72.612,55.689 Q72.974,55.27 72.974,54.967 Q72.974,54.713 71.978,54.254 L71.997,54.215 Q72.69,54.527 72.954,54.527 L73.735,54.527 Q73.989,54.527 74.146,54.4 Q74.302,54.273 74.497,53.814 L74.751,53.912 Q74.575,54.371 74.575,54.62 Q74.575,54.869 74.893,55.05 Q75.21,55.23 75.571,55.23 L77.036,55.23 L77.437,54.674 L77.573,54.811 Q77.632,54.752 77.632,54.581 Q77.632,54.41 77.397,53.932 L77.593,53.834 Q77.817,54.293 77.944,54.41 Q78.071,54.527 78.276,54.527 L78.657,54.527 Q78.735,54.527 79.067,54.181 Q79.399,53.834 79.399,53.727 Q79.399,53.619 79.233,53.111 L79.331,53.072 Q79.487,53.541 79.561,53.653 Q79.634,53.766 79.731,53.766 L79.79,53.766 Q79.985,53.766 80.698,53.492 L80.718,53.531 Q80.044,53.775 79.858,53.932 L79.595,54.166 Q79.517,54.254 79.512,54.439 Q79.507,54.625 79.448,54.796 Q79.39,54.967 79.272,55.045 Q79.087,55.172 78.896,55.206 Q78.706,55.24 78.359,55.348 Q78.013,55.455 77.876,55.494 L77.935,55.865 Q77.954,56.051 78.101,56.119 Q78.247,56.188 78.657,56.188 L78.657,56.646 Q78.179,56.646 78.032,56.793 Q78.032,56.852 78.042,56.974 Q78.052,57.096 78.052,57.174 L78.013,56.812 Q77.915,56.91 77.915,57.271 L78.052,60.328 Q78.052,61.295 77.944,63.17 Q77.837,65.045 77.827,65.519 Q77.817,65.992 77.925,66.139 Q78.032,66.285 78.452,66.568 L78.354,66.734 Q77.837,66.393 77.554,66.393 Q77.271,66.393 77.271,66.666 L77.271,67.525 Q77.271,67.789 77.915,67.96 Q78.56,68.131 78.56,68.414 L78.53,68.492 Q78.53,68.58 78.677,68.854 Q78.823,69.127 78.853,69.215 Q78.96,69.615 79.497,70.152 L79.419,70.25 Q78.794,69.625 78.472,69.547 L78.452,69.547 L78.394,69.527 Q77.993,69.527 77.993,70.494 L77.759,70.475 Q77.759,70.094 77.598,69.742 Q77.437,69.391 77.114,69.312 L76.919,69.674 Q76.978,69.537 76.978,69.43 z M78.159,57.828 Q78.081,57.438 78.052,57.174 z" fill="#93241C"/>
    <path d="M82.251,65.074 Q82.925,64.762 82.954,64.547 Q82.935,64.479 82.808,64.352 Q82.271,63.941 82.231,62.945 Q82.231,62.848 82.173,62.789 Q81.675,62.408 81.523,61.988 Q81.372,61.568 81.323,61.217 Q81.255,60.729 81.255,60.055 Q81.255,57.848 80.229,57.193 L81.069,55.914 Q81.392,56.168 82.061,56.168 Q82.729,56.168 83.208,55.992 Q83.228,55.318 83.823,55.035 Q84.106,54.908 84.399,54.83 Q85.347,54.576 85.859,54.342 Q86.372,54.107 86.714,54.107 Q87.671,54.107 88.696,54.767 Q89.722,55.426 90.151,56.354 Q90.405,56.832 91.226,57.379 Q91.929,57.838 91.929,58.59 Q91.929,58.873 92.085,59.161 Q92.241,59.449 92.5,59.449 Q92.759,59.449 93.071,59.332 L93.149,59.566 Q92.71,59.713 92.578,59.825 Q92.446,59.938 92.446,60.113 L92.632,62.174 Q92.632,62.809 92.192,63.883 Q91.675,65.182 91.675,65.44 Q91.675,65.699 91.802,65.821 Q91.929,65.943 92.31,66.129 L92.212,66.334 Q91.763,66.129 91.582,66.129 Q91.401,66.129 91.318,66.227 Q91.235,66.324 90.977,66.607 Q90.718,66.891 90.649,66.964 Q90.581,67.037 90.356,67.271 Q90.132,67.506 90.02,67.618 Q89.907,67.73 89.722,67.926 Q89.478,68.17 89.185,68.424 Q88.892,68.678 88.892,68.858 Q88.892,69.039 89.048,69.469 L88.853,69.547 Q88.677,69.078 88.564,68.956 Q88.452,68.834 88.247,68.834 L88.188,68.834 Q87.915,68.834 87.754,68.966 Q87.593,69.098 87.427,69.566 L87.134,69.449 Q87.271,69.049 87.271,68.805 Q87.271,68.561 87.046,68.434 Q86.821,68.307 86.538,68.287 Q85.747,68.229 85.474,67.691 Q85.454,67.643 85.376,67.496 Q85.21,67.232 85.151,66.969 Q84.81,66.92 84.019,66.617 Q83.228,66.314 82.886,66.188 L83.267,66.314 Q83.384,66.354 83.506,66.354 Q83.628,66.354 83.75,66.236 Q83.872,66.119 83.872,65.929 Q83.872,65.738 83.525,65.382 Q83.179,65.025 83.008,65.025 Q82.837,65.025 82.329,65.23 z M84.175,59.029 Q83.989,59.029 83.989,59.273 L83.989,60.152 Q83.989,60.494 84.341,61.354 Q85.396,63.98 85.435,64.811 Q85.435,64.869 85.474,64.947 L85.688,65.23 Q85.845,65.445 86.03,65.445 Q86.216,65.445 86.587,65.23 L86.772,65.494 Q86.255,65.797 86.255,66.031 Q86.255,66.158 86.299,66.231 Q86.343,66.305 86.362,66.363 Q86.382,66.422 86.387,66.446 Q86.392,66.471 86.416,66.51 Q86.44,66.549 86.47,66.559 Q86.558,66.607 86.646,66.607 L86.772,66.607 Q86.987,66.607 87.134,66.729 Q87.28,66.852 87.31,66.852 L87.847,66.852 Q87.935,66.852 87.954,66.832 L88.267,66.666 Q88.286,66.656 88.423,66.383 Q88.892,65.436 89.028,65.279 Q89.165,65.123 89.189,64.83 Q89.214,64.537 89.312,64.469 Q89.38,64.332 89.434,63.961 Q89.487,63.59 89.58,63.463 Q89.673,63.336 89.673,63.268 L89.673,61.051 Q89.673,59.83 89.028,59.83 Q88.813,59.83 88.667,59.85 L88.628,59.605 Q89.087,59.537 89.219,59.444 Q89.351,59.352 89.37,59.166 Q89.351,59.117 89.238,58.99 Q89.126,58.863 89.126,58.688 L89.146,58.414 Q89.146,58.326 88.999,58.165 Q88.853,58.004 88.535,57.354 Q88.218,56.705 87.974,56.432 Q87.759,56.549 87.71,57.086 L87.29,57.047 Q87.31,56.949 87.31,56.734 Q87.31,56.109 86.528,56.109 Q86.44,56.109 86.035,56.271 Q85.63,56.432 85.605,56.461 Q85.581,56.49 85.493,56.646 L85.356,56.881 Q85.229,57.115 85.229,57.311 Q85.229,57.506 85.806,57.828 L85.708,57.994 Q85.22,57.73 85.078,57.73 Q84.937,57.73 84.814,57.911 Q84.692,58.092 84.614,58.316 Q84.419,58.922 84.175,59.029 z M82.827,66.168 Q82.866,66.168 82.886,66.188 z" fill="#93241C"/>
    <path d="M94.712,68.99 Q95.337,68.883 95.337,68.629 L95.298,67.789 Q95.269,67.643 95.239,67.613 L95.171,67.594 Q95.171,67.525 94.976,67.525 Q94.78,67.525 94.272,67.828 L94.175,67.691 Q94.565,67.438 94.683,67.296 Q94.8,67.154 94.81,66.92 Q94.819,66.686 94.81,66.534 Q94.8,66.383 94.746,66.163 Q94.692,65.943 94.561,65.836 Q94.429,65.729 94.214,65.729 Q93.999,65.729 93.892,65.748 L93.833,65.406 Q94.312,65.338 94.424,65.206 Q94.536,65.074 94.536,64.752 L94.536,64.566 Q94.536,64.215 94.175,63.57 L94.253,63.531 Q94.595,64.166 94.897,64.391 L95.22,64.586 L95.317,64.635 Q96.138,64.723 96.196,66.432 Q96.196,66.5 96.343,66.676 Q96.929,67.379 96.997,67.56 Q97.065,67.74 97.09,67.789 Q97.114,67.838 97.134,67.867 Q97.153,67.896 97.173,67.926 Q97.202,67.975 97.256,67.975 Q97.31,67.975 97.354,67.877 Q97.397,67.779 97.397,67.574 Q97.397,67.369 97.212,67.047 L97.378,66.969 Q97.563,67.398 97.686,67.516 Q97.808,67.633 97.993,67.633 L98.696,67.633 Q99.136,67.633 99.692,67.467 Q99.751,67.369 100.098,67.125 Q100.444,66.881 100.493,66.607 L100.571,65.152 Q100.571,65.035 100.298,64.469 L99.038,63.414 Q98.999,63.365 98.892,63.365 L98.315,63.365 Q98.091,63.365 97.944,63.473 Q97.798,63.58 97.593,64.01 L97.397,63.932 Q97.612,63.492 97.612,63.253 Q97.612,63.014 97.397,62.862 Q97.183,62.711 96.924,62.711 Q96.665,62.711 96.372,63.268 L96.157,63.15 Q96.372,62.73 96.372,62.594 Q96.372,62.457 96.226,62.35 Q96.079,62.242 95.884,62.164 Q95.366,61.959 95.093,61.627 Q94.829,61.393 94.136,61.393 L94.136,61.227 L94.312,61.227 Q94.907,61.227 95.093,61.012 L95.278,60.807 Q95.122,60.572 95.005,60.572 Q94.888,60.572 94.38,60.729 L94.272,60.475 Q94.585,60.318 94.702,60.211 Q94.819,60.104 94.819,59.967 Q94.819,59.83 94.722,59.615 Q94.624,59.4 94.556,59.088 Q94.009,58.629 93.491,58.629 Q93.335,58.629 93.257,58.648 L93.013,57.486 Q93.511,57.398 93.848,56.891 Q94.185,56.383 94.458,55.309 L94.058,54.449 Q94.087,54.332 94.224,54.332 Q94.507,54.332 95.034,54.742 L95.22,54.889 Q95.278,54.83 95.278,54.771 Q95.386,54.303 96.499,54.215 Q97.593,54.117 97.593,53.551 Q97.593,53.346 97.573,53.229 L97.876,53.209 Q97.944,53.824 98.169,53.902 Q98.257,53.932 98.433,53.932 L99.419,53.951 Q99.575,53.951 99.673,53.834 Q99.771,53.717 99.937,53.307 L100.151,53.365 Q100.034,53.658 100.034,53.951 Q100.034,54.234 101.118,54.869 Q101.44,55.055 101.44,55.074 Q101.44,55.094 101.411,55.094 Q101.519,55.094 101.597,55.006 L103.052,53.473 L103.218,53.59 L102.935,54.371 Q102.915,54.41 102.915,54.469 Q102.915,54.527 103.135,54.874 Q103.354,55.221 103.354,55.475 Q103.354,56.852 102.358,60.172 Q102.339,60.172 102.339,60.328 Q102.339,60.484 102.476,61.07 L102.417,61.09 Q102.212,60.182 101.929,60.035 Q101.812,59.986 101.631,59.908 Q101.45,59.83 101.284,59.674 Q101.118,59.518 100.874,58.614 Q100.63,57.711 100.571,57.584 Q100.513,57.457 100.234,57.091 Q99.956,56.725 99.946,56.559 Q99.937,56.393 99.878,56.334 L99.116,55.631 Q99.028,55.514 98.94,55.514 Q98.696,55.514 98.696,55.802 Q98.696,56.09 98.794,56.373 L98.618,56.432 Q98.491,55.982 98.384,55.865 Q98.276,55.748 98.091,55.748 L97.476,55.748 Q97.378,55.748 97.319,55.807 L96.733,56.314 Q96.675,56.314 96.675,56.51 L96.675,58.229 Q96.694,58.414 96.753,58.414 Q97.114,58.697 98.281,59.4 Q99.448,60.104 100.361,60.763 Q101.274,61.422 101.479,61.91 Q101.538,62.047 101.655,62.047 Q102.339,62.223 102.339,64.488 Q102.339,66.314 102.144,66.793 Q101.763,67.77 101.118,68.268 Q101.04,68.385 101.011,68.541 Q100.981,68.697 100.64,69.049 Q100.298,69.4 100.239,69.635 Q100.005,69.771 99.448,69.771 Q98.892,69.771 97.988,69.649 Q97.085,69.527 96.636,69.527 Q96.187,69.527 95.928,69.664 Q95.669,69.801 95.376,70.289 L95.132,70.152 Q95.435,69.635 95.435,69.312 Q95.435,69.146 95.239,69.146 Q95.044,69.146 94.731,69.215 z M95.356,60.953 L95.278,60.807 Q95.308,60.914 95.356,60.953 z" fill="#93241C"/>
  </g>
</svg>
