<?xml version="1.0" encoding="UTF-8"?>
<!DOCTYPE svg PUBLIC "-//W3C//DTD SVG 1.1//EN" "http://www.w3.org/Graphics/SVG/1.1/DTD/svg11.dtd">
<svg version="1.1" xmlns="http://www.w3.org/2000/svg" xmlns:xlink="http://www.w3.org/1999/xlink" x="0" y="0" width="250" height="90" viewBox="0, 0, 250, 90">
  <g id="Image">
    <path d="M49.067,72.607 C48.322,73.354 47.403,73.699 46.279,73.623 C45.427,73.577 45.167,73.246 45.043,73.002 C43.908,70.732 47.666,63.831 51.67,57.422 C51.84,63.968 51.472,70.194 49.067,72.607 z M29.95,85.643 C28.343,87.34 25.858,88.359 23.299,88.369 C23.285,88.371 23.272,88.371 23.257,88.371 C20.874,88.371 18.753,87.529 17.283,86.001 C15.274,83.914 14.305,80.699 14.69,77.405 C15.44,70.985 19.623,65.289 24.214,59.836 C24.628,60.42 25.059,61.018 25.498,61.628 C31.002,69.272 37.242,77.935 29.95,85.643 z M108.005,37.924 C107.603,37.709 107.112,37.859 106.902,38.256 C105.249,41.333 100.401,47.25 100.401,47.25 C97.227,51.053 93.673,54.625 91.481,54.625 C87.81,54.625 90.396,48.013 95.137,37.355 C95.532,36.466 95.978,35.344 96.578,35.944 C97.179,36.545 96.921,39.01 96.761,40.134 L98.373,40.364 C98.651,38.42 98.4,32.648 96.677,30.763 C96.101,30.133 95.466,30.041 95.075,30.05 C91.37,30.246 88.476,37.779 84.484,49.25 C83.277,52.716 81.709,57.213 80.265,60.332 C78.984,60.332 85.441,40.929 83.542,37.644 C83.542,37.644 77.561,35.664 77.004,35.685 C75.82,35.753 74.492,36.753 73.135,38.274 C73.785,34.876 73.959,33.442 73.247,33.118 C73.247,33.118 69.148,31.321 68.9,31.209 C66.336,30.038 61.862,37.73 59.42,42.416 C58.973,43.279 57.963,44.839 56.717,46.717 C56.68,42.747 57.732,34.121 57.732,34.121 L52.142,34.257 C52.104,34.382 51.2,38.156 50.79,40.208 C50.46,41.862 49.327,44.452 47.782,46.723 C47.076,47.759 46.341,48.815 45.439,49.692 C44.582,50.524 43.374,51.025 42.302,50.328 C41.491,49.8 41.168,48.342 41.058,47.129 C40.909,45.492 41.245,43.65 41.787,41.845 L44.877,34.139 L40.142,34.139 L39.76,34.515 C39.607,34.771 35.989,40.82 34.768,43.263 C32.859,47.08 29.918,50.676 26.717,54.409 C18.97,43.87 8.811,33.089 6.413,20.138 C5.719,16.383 6.684,12.346 8.4,8.989 C10.429,5.017 15.411,1.738 17.705,1.738 C19.999,1.738 22.482,3 24.624,4.67 C26.996,6.519 28.349,9.278 28.173,11.827 C28.161,12.001 28.156,12.354 28.555,12.416 C28.752,12.446 29.037,12.5 29.279,12.527 C29.64,12.568 29.745,12.502 29.78,12.158 C30.101,9.017 28.486,5.615 25.626,3.385 C20.402,-0.686 13.982,-1.111 8.453,2.251 C2.264,6.009 -1.019,13.258 0.282,20.286 C2.256,30.959 9.304,40.044 16.119,48.831 C18.656,52.103 21.053,55.192 23.171,58.331 C23.198,58.37 23.224,58.41 23.252,58.45 C18.391,64.192 13.891,70.209 13.071,77.216 C12.63,80.989 13.765,84.695 16.107,87.13 C17.889,88.982 20.426,90 23.257,90 C23.274,90 23.289,90 23.306,90 C24.384,89.995 27.077,90 29.789,89.312 C31.245,88.943 34.427,87.731 35.873,86.203 C44.801,76.765 34.539,65.82 29.177,57.875 C28.702,57.171 28.209,56.466 27.704,55.761 C30.957,51.973 34.189,48.064 36.224,43.993 C36.247,43.948 36.27,43.902 36.294,43.855 C35.808,46.477 35.958,49.021 37.525,50.857 C39.494,53.165 41.574,53.219 42.965,52.855 C46.501,51.935 49.603,47.511 51.25,43.851 C51.165,45.249 51.129,46.56 51.182,47.546 L51.299,49.578 C51.392,51.183 51.49,52.86 51.566,54.55 C46.026,63.195 42.02,70.602 43.587,73.731 C43.91,74.377 44.624,75.164 46.189,75.251 C46.867,75.286 51.311,75.182 53.711,73.633 C58.288,70.681 57.363,59.229 56.847,49.465 C56.872,49.428 56.901,49.385 56.926,49.347 C58.781,46.561 60.247,44.362 60.867,43.168 C63.688,37.752 67.029,32.987 68.131,32.705 C68.743,34.624 65.757,46.158 62.654,56.432 L68.381,56.427 C68.381,56.427 70.773,48.772 72.351,41.946 C74.173,39.252 75.88,37.382 77.097,37.312 C77.255,37.307 77.648,37.283 78.092,38.052 C78.227,38.283 78.31,38.6 78.359,38.974 C78.097,45.631 72.762,59.999 74.99,63.853 C75.103,64.124 75.23,64.377 75.394,64.591 C75.9,65.253 76.638,65.617 77.53,65.643 C77.549,65.644 77.569,65.644 77.59,65.644 C80.183,65.644 82.22,60.627 85.344,51.73 C85.385,53.248 85.694,54.63 86.449,55.641 C87.275,56.745 88.515,57.305 90.134,57.305 C94.344,57.305 100.973,50.081 105.824,43.05 C105.824,43.05 107.623,40.356 108.337,39.027 C108.55,38.63 108.402,38.136 108.005,37.924" fill="#383838"/>
    <path d="M93.085,68.039 L93.085,73.025 L98.647,73.025 L98.647,68.039 L100.069,68.039 L100.069,79.361 L98.647,79.361 L98.647,74.249 L93.085,74.249 L93.085,79.361 L91.663,79.361 L91.663,68.039 z" fill="#383838"/>
    <path d="M107.687,68.039 L114.653,68.039 L114.653,69.263 L109.109,69.263 L109.109,73.061 L114.329,73.061 L114.329,74.267 L109.109,74.267 L109.109,78.119 L114.653,78.119 L114.653,79.361 L107.687,79.361 z" fill="#383838"/>
    <path d="M124.359,68.039 L126.087,68.039 L129.885,79.361 L128.409,79.361 L127.437,76.481 L122.937,76.481 L121.965,79.361 L120.471,79.361 z M123.315,75.365 L127.077,75.365 L125.205,69.785 z" fill="#383838"/>
    <path d="M137.593,78.119 L142.633,78.119 L142.633,79.361 L136.171,79.361 L136.171,68.039 L137.593,68.039 z" fill="#383838"/>
    <path d="M146.003,68.039 L154.805,68.039 L154.805,69.263 L151.115,69.263 L151.115,79.361 L149.693,79.361 L149.693,69.263 L146.003,69.263 z" fill="#383838"/>
    <path d="M162.153,68.039 L162.153,73.025 L167.715,73.025 L167.715,68.039 L169.137,68.039 L169.137,79.361 L167.715,79.361 L167.715,74.249 L162.153,74.249 L162.153,79.361 L160.731,79.361 L160.731,68.039 z" fill="#383838"/>
    <path d="M185.085,78.119 L190.125,78.119 L190.125,79.361 L183.663,79.361 L183.663,68.039 L185.085,68.039 z" fill="#383838"/>
    <path d="M198.625,68.039 L200.353,68.039 L204.151,79.361 L202.675,79.361 L201.703,76.481 L197.203,76.481 L196.231,79.361 L194.737,79.361 z M197.581,75.365 L201.343,75.365 L199.471,69.785 z" fill="#383838"/>
    <path d="M210.437,68.039 L214.667,68.039 Q216.449,68.039 217.412,68.885 Q218.375,69.731 218.375,71.009 Q218.375,71.981 217.844,72.701 Q217.313,73.421 216.233,73.673 Q217.295,73.853 217.934,74.591 Q218.573,75.329 218.573,76.265 Q218.573,78.353 216.539,79.091 Q215.783,79.361 214.685,79.361 L210.437,79.361 z M214.649,78.119 Q215.945,78.119 216.503,77.597 Q217.061,77.075 217.061,76.211 Q217.061,75.347 216.449,74.834 Q215.837,74.321 214.649,74.321 L211.859,74.321 L211.859,78.119 z M211.859,73.097 L214.631,73.097 Q215.675,73.097 216.296,72.584 Q216.917,72.071 216.917,71.171 Q216.917,70.271 216.314,69.767 Q215.711,69.263 214.631,69.263 L211.859,69.263 z" fill="#383838"/>
    <path d="M231.663,70.793 Q231.357,69.137 229.233,69.137 Q228.099,69.137 227.487,69.632 Q226.875,70.127 226.875,70.82 Q226.875,71.513 227.253,71.873 Q227.631,72.233 228.477,72.503 L230.835,73.313 Q232.041,73.727 232.752,74.447 Q233.463,75.167 233.463,76.472 Q233.463,77.777 232.347,78.668 Q231.231,79.559 229.359,79.559 Q227.487,79.559 226.29,78.614 Q225.093,77.669 225.057,75.959 L226.443,75.959 Q226.443,77.075 227.226,77.669 Q228.009,78.263 229.242,78.263 Q230.475,78.263 231.195,77.714 Q231.915,77.165 231.915,76.418 Q231.915,75.671 231.474,75.239 Q231.033,74.807 230.169,74.519 L228.171,73.781 Q226.767,73.313 226.047,72.665 Q225.327,72.017 225.327,70.766 Q225.327,69.515 226.335,68.678 Q227.343,67.841 229.161,67.841 Q230.979,67.841 231.942,68.642 Q232.905,69.443 233.049,70.793 z" fill="#383838"/>
  </g>
</svg>
